<?xml version="1.0" standalone="no"?>
<!DOCTYPE svg PUBLIC "-//W3C//DTD SVG 20010904//EN"
 "http://www.w3.org/TR/2001/REC-SVG-20010904/DTD/svg10.dtd">
<svg version="1.0" xmlns="http://www.w3.org/2000/svg"
 width="480.000000pt" height="480.000000pt" viewBox="0 0 480.000000 480.000000"
 preserveAspectRatio="xMidYMid meet">
<metadata>
Created by potrace 1.11, written by Peter Selinger 2001-2013
</metadata>
<g transform="translate(0.000000,480.000000) scale(0.100000,-0.100000)"
fill="#000000" stroke="none">
<path d="M2816 4784 c-3 -9 -6 -59 -6 -112 1 -115 25 -214 58 -238 12 -8 22
-13 22 -9 0 3 10 -1 23 -9 21 -14 180 -58 261 -72 35 -6 38 -8 21 -20 -10 -7
-15 -20 -12 -29 5 -11 0 -15 -21 -14 -17 1 -20 3 -9 6 9 2 17 11 17 20 0 12
-3 13 -14 4 -11 -9 -15 -9 -19 1 -4 9 -6 8 -6 -3 -1 -18 -38 -32 -47 -18 -3 5
-15 9 -28 9 -12 0 -28 6 -35 13 -12 10 -13 8 -6 -8 15 -39 23 -98 18 -141 -3
-35 -1 -45 16 -53 11 -6 22 -7 25 -2 3 4 35 23 71 42 56 28 67 31 75 19 6 -10
10 -11 10 -3 0 7 7 10 15 7 10 -4 15 0 15 12 0 17 1 16 15 -2 8 -10 15 -22 15
-26 0 -10 -121 -68 -143 -68 -9 0 -22 -11 -27 -25 -13 -33 -36 -32 -49 3 -10
25 -10 24 -7 -14 2 -23 7 -47 11 -54 5 -9 4 -11 -3 -6 -8 5 -12 0 -12 -13 0
-31 24 -26 64 14 20 19 54 44 75 55 22 11 42 24 46 30 3 5 20 10 36 10 17 0
40 5 52 12 12 6 43 15 70 18 36 5 47 3 47 -8 0 -8 -9 -12 -22 -11 -30 4 -48
-8 -48 -32 0 -13 7 -19 21 -19 11 0 45 -12 74 -26 50 -23 54 -28 51 -55 -2
-16 1 -29 7 -29 6 0 8 -2 5 -5 -3 -3 -29 6 -59 20 -30 14 -64 25 -76 25 -12 0
-25 5 -28 10 -3 6 -15 10 -26 10 -10 0 -19 7 -19 15 0 19 -11 19 -36 0 -10 -8
-27 -15 -36 -15 -10 0 -18 -4 -18 -10 0 -5 -9 -10 -20 -10 -11 0 -20 -4 -20
-9 0 -5 -9 -13 -20 -16 -11 -3 -20 -10 -20 -14 0 -14 -68 -81 -82 -81 -10 0
-9 -3 2 -10 9 -6 19 -5 29 3 12 10 13 9 4 -6 -5 -10 -21 -24 -34 -30 -24 -12
-40 -57 -20 -57 6 0 8 -7 4 -16 -6 -17 23 4 74 54 13 12 28 22 34 22 6 0 8 4
5 9 -4 5 3 7 14 4 12 -3 28 1 38 9 28 23 63 36 137 52 39 8 81 17 95 21 23 6
22 4 -10 -24 -27 -25 -30 -31 -15 -31 29 0 115 -42 115 -56 0 -7 3 -20 7 -30
5 -14 2 -16 -18 -11 -135 32 -165 40 -173 48 -17 16 -33 10 -121 -44 -94 -57
-184 -134 -147 -125 29 8 28 -5 -3 -28 -18 -13 -24 -25 -20 -40 3 -13 -1 -27
-10 -34 -17 -14 -20 -40 -5 -40 6 0 10 6 10 14 0 15 96 116 111 116 14 0 47
36 51 57 3 15 11 17 46 15 33 -3 58 4 107 28 47 24 72 30 93 25 24 -5 28 -10
24 -30 -2 -15 -16 -29 -33 -37 -31 -14 -38 -28 -14 -28 26 0 83 -33 88 -50 8
-31 -7 -42 -49 -35 -87 14 -135 29 -130 41 6 15 -27 7 -70 -17 -54 -30 -68
-37 -106 -53 -23 -11 -38 -24 -40 -38 -2 -14 -19 -30 -48 -44 -25 -13 -39 -24
-31 -24 8 0 12 -3 8 -6 -3 -4 4 -15 16 -25 18 -15 20 -20 8 -28 -8 -5 -15 -19
-16 -31 -2 -21 -1 -21 19 3 12 13 38 30 59 38 20 7 37 17 37 21 0 4 24 8 53 9
50 0 51 1 30 16 -15 10 -23 26 -23 44 0 25 4 29 28 29 15 0 44 -4 65 -9 30 -7
48 -5 83 11 34 15 48 17 59 8 11 -9 11 -17 -1 -45 -14 -34 -14 -35 18 -51 44
-22 43 -20 24 -49 -15 -22 -23 -25 -79 -25 -169 -1 -297 -30 -283 -65 4 -10
-4 -12 -32 -8 -20 3 -43 10 -49 16 -9 7 -13 5 -13 -7 0 -9 6 -17 13 -17 6 -1
17 -2 22 -4 6 -1 23 -3 39 -3 36 -2 24 -17 -21 -25 -20 -4 -33 -2 -36 6 -2 7
-7 9 -11 6 -12 -12 5 -34 39 -51 24 -12 36 -14 41 -6 11 17 26 -20 18 -45 -4
-12 -14 -27 -23 -34 -19 -15 -8 -17 17 -4 70 37 290 62 361 42 27 -7 41 -51
16 -51 -8 0 -15 -4 -15 -10 0 -5 6 -10 14 -10 8 0 14 -8 14 -17 -1 -10 2 -28
6 -40 5 -16 2 -23 -14 -28 -11 -3 -20 -11 -20 -17 0 -5 -7 -8 -15 -4 -9 3 -15
0 -15 -8 0 -9 8 -12 23 -9 20 4 20 3 4 -7 -40 -26 -284 -9 -302 20 -3 6 -15
10 -26 10 -10 0 -19 5 -19 10 0 6 -7 10 -15 10 -8 0 -15 4 -15 9 0 5 -9 13
-20 16 -11 3 -20 10 -20 15 0 5 -12 22 -26 37 -55 60 -62 69 -77 101 -9 18
-13 40 -10 48 3 8 -1 14 -11 14 -9 0 -18 12 -22 28 -10 46 -12 48 -13 11 -1
-36 18 -89 32 -89 4 0 7 -8 7 -18 0 -10 20 -42 45 -71 25 -29 45 -56 45 -61 0
-5 8 -11 18 -14 10 -4 27 -14 38 -24 64 -58 143 -81 302 -89 81 -4 118 -9 108
-15 -29 -16 -18 -31 19 -25 25 4 35 2 35 -7 0 -16 -85 -61 -113 -59 -12 1 -27
-2 -33 -8 -8 -7 -14 -6 -19 1 -3 6 -11 8 -16 5 -5 -4 -9 -1 -9 5 0 17 -33 7
-52 -15 -15 -19 -17 -19 -23 -2 -9 21 -58 23 -75 2 -7 -8 -19 -15 -26 -15 -8
0 -14 7 -14 15 0 9 -9 15 -25 15 -14 0 -25 -4 -25 -8 0 -16 25 -32 50 -32 33
0 43 -9 29 -26 -16 -20 46 -29 191 -29 97 0 132 4 155 17 36 20 82 58 69 58
-5 0 -1 5 9 11 9 5 17 17 17 25 0 8 5 23 10 34 6 11 15 29 20 40 15 30 12 42
-16 75 -14 16 -23 37 -21 47 3 10 1 16 -4 12 -5 -3 -13 6 -19 20 -5 14 -14 26
-20 26 -5 0 -10 7 -10 15 0 9 -7 18 -15 21 -17 7 -9 65 12 77 7 4 13 22 13 40
0 22 -3 28 -9 18 -5 -7 -10 -9 -13 -5 -6 12 -4 23 10 57 14 34 15 82 3 105
-10 19 -20 91 -27 192 l-4 65 22 -67 c28 -81 34 -88 43 -49 13 61 33 21 26
-51 -2 -11 5 -18 15 -18 13 0 15 -6 9 -32 -13 -62 -5 -160 16 -189 10 -15 19
-31 19 -36 0 -33 36 -72 165 -178 72 -59 245 -124 331 -125 31 0 84 32 84 51
0 5 -11 2 -25 -7 -31 -21 -133 -14 -170 10 -13 9 -30 16 -37 16 -34 1 -144 62
-212 118 -75 61 -76 63 -60 86 57 88 302 48 457 -74 24 -19 57 -83 57 -111 0
-28 14 -15 17 14 1 12 4 42 7 67 l6 45 -14 -40 -13 -40 -18 40 c-11 22 -23 43
-28 46 -14 10 2 29 18 22 12 -4 15 6 15 50 0 47 -3 57 -20 62 -22 7 -27 21 -9
27 16 5 -1 37 -24 44 -12 3 -29 12 -37 19 -8 7 -33 19 -55 26 -22 8 -55 22
-73 31 -18 10 -37 18 -43 18 -15 0 -39 26 -39 42 0 9 -2 10 -8 2 -4 -7 -26
-11 -52 -9 -25 1 -48 -2 -52 -8 -4 -8 -9 -5 -14 6 -10 27 8 39 63 42 26 2 51
4 55 4 5 1 5 17 2 36 -5 30 -3 34 13 28 10 -3 31 -18 46 -32 15 -14 33 -26 40
-27 7 0 22 -2 34 -2 17 -2 22 -9 25 -34 2 -27 10 -36 43 -51 22 -11 52 -30 67
-44 l26 -25 4 23 c2 13 -1 34 -6 47 -7 18 -6 26 4 32 8 5 12 11 10 14 -104
109 -207 206 -219 206 -14 -1 -14 -2 2 -14 9 -7 17 -21 17 -30 0 -14 -11 -16
-104 -10 -75 5 -105 3 -111 -5 -5 -9 -12 -8 -26 5 -11 10 -19 12 -19 6 0 -7
-4 -12 -10 -12 -21 0 -8 16 28 34 20 10 45 22 55 28 10 5 50 9 88 10 l70 0
-37 32 c-40 35 -39 56 2 56 27 0 64 -21 104 -58 14 -13 35 -28 48 -33 12 -4
22 -15 22 -22 0 -8 11 -25 24 -39 12 -14 26 -33 29 -42 4 -9 13 -16 22 -16 20
0 20 77 -1 105 -32 44 -159 165 -172 165 -8 0 -12 -6 -8 -15 4 -12 -6 -15 -62
-15 -37 -1 -87 -5 -112 -10 -75 -14 -98 24 -32 53 47 21 178 24 185 5 2 -8 8
-9 13 -4 5 5 4 11 -3 13 -13 5 -18 45 -7 56 6 5 70 -26 89 -44 5 -5 22 -9 38
-9 25 0 28 -2 17 -15 -11 -13 -8 -21 17 -48 17 -18 35 -41 41 -52 l11 -20 2
20 c2 20 5 36 9 45 17 43 -14 126 -66 178 -16 16 -49 50 -73 76 l-44 47 49 -3
c39 -2 51 -8 60 -26 6 -13 20 -31 31 -41 11 -10 25 -33 33 -50 20 -50 40 -34
40 34 0 18 6 35 13 38 9 3 9 9 -1 27 -8 14 -10 25 -4 29 17 11 32 49 32 83 0
45 8 54 54 61 22 4 45 12 52 19 9 9 13 85 16 266 l4 252 -361 0 -360 0 -13
-28 c-7 -15 -18 -67 -24 -117 -5 -49 -14 -98 -19 -107 -5 -10 -9 -33 -9 -52 0
-29 5 -37 30 -48 17 -7 30 -19 30 -26 0 -20 29 -45 54 -47 22 -2 24 -20 10
-92 -7 -37 5 -43 31 -17 11 11 20 13 26 7 7 -7 3 -17 -14 -29 -13 -11 -22 -25
-19 -33 3 -10 -1 -12 -14 -8 -16 6 -17 5 -4 -5 8 -7 17 -22 18 -33 2 -11 5
-21 7 -23 2 -2 29 15 62 37 43 30 59 36 61 25 4 -16 -19 -74 -29 -74 -4 0 -9
-9 -12 -20 -3 -12 -14 -20 -26 -20 -12 0 -21 -4 -21 -9 0 -16 -44 -21 -52 -6
-7 11 -13 11 -38 -2 -31 -15 -37 -27 -20 -38 22 -13 8 -20 -35 -17 -44 4 -78
27 -59 40 7 5 6 15 -2 30 l-11 23 -11 -28 c-6 -15 -14 -40 -18 -55 -3 -16 -10
-28 -14 -28 -5 0 -10 12 -12 28 -4 26 -5 24 -27 -20 -16 -36 -27 -48 -44 -48
-21 0 -22 3 -20 100 1 55 -2 100 -7 100 -4 0 -5 29 -3 64 3 36 2 73 -2 83 -5
10 -9 25 -10 33 -1 8 -5 24 -9 35 -4 16 4 30 34 59 31 29 40 45 40 71 0 19 -4
36 -9 39 -5 4 -12 29 -16 56 -4 28 -16 74 -26 103 -10 28 -19 62 -19 74 l0 23
-369 0 c-327 0 -370 -2 -375 -16z m511 -610 c-3 -3 -12 -4 -19 -1 -8 3 -5 6 6
6 11 1 17 -2 13 -5z m1036 -59 c-3 -9 -8 -14 -10 -11 -3 3 -2 9 2 15 9 16 15
13 8 -4z m-489 -300 c-4 -8 -8 -15 -10 -15 -2 0 -4 7 -4 15 0 8 4 15 10 15 5
0 7 -7 4 -15z m-14 -225 c0 -5 -2 -10 -4 -10 -3 0 -8 5 -11 10 -3 6 -1 10 4
10 6 0 11 -4 11 -10z m-100 -72 c0 -19 -2 -20 -10 -8 -13 19 -13 30 0 30 6 0
10 -10 10 -22z m116 -68 c1 -23 -2 -28 -11 -20 -7 6 -11 20 -8 30 8 30 18 24
19 -10z m-756 -12 c0 -11 -28 -10 -35 1 -3 6 4 9 15 8 11 -1 20 -5 20 -9z
m122 -160 c-8 -8 -9 -4 -5 13 4 13 8 18 11 10 2 -7 -1 -18 -6 -23z m-16 -44
c-3 -9 -6 -22 -6 -30 0 -8 -7 -14 -15 -14 -8 0 -15 6 -15 14 0 26 12 46 27 46
10 0 13 -6 9 -16z m139 -474 c11 -13 14 -20 6 -20 -13 0 -41 24 -41 34 0 12
18 5 35 -14z m155 10 c0 -5 -4 -10 -9 -10 -6 0 -13 5 -16 10 -3 6 1 10 9 10 9
0 16 -4 16 -10z"/>
<path d="M2950 4359 c0 -5 5 -7 10 -4 6 3 10 8 10 11 0 2 -4 4 -10 4 -5 0 -10
-5 -10 -11z"/>
<path d="M2829 4343 c-18 -21 11 -37 84 -43 83 -7 98 1 45 27 -59 29 -113 36
-129 16z"/>
<path d="M3030 4331 c0 -6 4 -13 10 -16 6 -3 7 1 4 9 -7 18 -14 21 -14 7z"/>
<path d="M4790 4247 c0 -14 -35 -47 -49 -47 -5 0 -11 4 -13 10 -2 6 -9 6 -18
0 -20 -12 -12 -17 43 -22 l47 -6 0 39 c0 22 -2 39 -5 39 -3 0 -5 -6 -5 -13z"/>
<path d="M3787 4158 c-29 -31 -35 -43 -25 -49 10 -7 10 -9 1 -9 -7 0 -13 -4
-13 -10 0 -27 28 -4 49 40 14 28 29 50 33 50 4 0 8 5 8 10 0 19 -15 10 -53
-32z"/>
<path d="M3093 4094 c-3 -8 -1 -20 4 -25 7 -7 11 -2 11 15 0 29 -6 33 -15 10z"/>
<path d="M3031 3944 c0 -11 3 -14 6 -6 3 7 2 16 -1 19 -3 4 -6 -2 -5 -13z"/>
<path d="M3395 3650 c-3 -5 -1 -10 4 -10 6 0 11 5 11 10 0 6 -2 10 -4 10 -3 0
-8 -4 -11 -10z"/>
<path d="M2942 3360 c0 -14 2 -19 5 -12 2 6 2 18 0 25 -3 6 -5 1 -5 -13z"/>
<path d="M3125 3321 c-7 -12 12 -24 25 -16 11 7 4 25 -10 25 -5 0 -11 -4 -15
-9z"/>
<path d="M3880 3177 c0 -8 7 -18 16 -21 11 -4 14 -1 12 11 -4 21 -28 30 -28
10z"/>
<path d="M3920 3115 c7 -8 19 -15 27 -15 13 0 13 3 3 15 -7 8 -19 15 -27 15
-13 0 -13 -3 -3 -15z"/>
<path d="M3822 2865 c15 -14 34 -25 42 -25 8 0 16 -3 18 -7 6 -15 110 -64 124
-59 8 3 14 1 14 -4 0 -12 55 -28 128 -36 66 -7 74 -2 42 26 -19 16 -19 19 -5
34 9 9 12 16 6 16 -6 0 -8 7 -5 15 5 11 -1 15 -18 15 -13 0 -30 6 -37 13 -11
10 -13 10 -7 0 4 -8 1 -13 -8 -13 -9 0 -16 4 -16 8 0 14 -52 34 -62 24 -6 -6
1 -12 16 -16 30 -7 34 -22 9 -29 -14 -4 -12 -5 5 -6 26 -1 30 -21 5 -21 -10 0
-30 6 -44 14 -14 7 -40 11 -58 8 -32 -4 -108 26 -139 55 -7 7 -19 13 -25 13
-7 0 0 -11 15 -25z m338 -55 c0 -5 -4 -10 -10 -10 -5 0 -10 5 -10 10 0 6 5 10
10 10 6 0 10 -4 10 -10z"/>
<path d="M3475 2870 c-3 -5 -1 -10 4 -10 6 0 11 5 11 10 0 6 -2 10 -4 10 -3 0
-8 -4 -11 -10z"/>
<path d="M4216 2816 c3 -9 11 -16 16 -16 13 0 5 23 -10 28 -7 2 -10 -2 -6 -12z"/>
<path d="M4277 2806 c10 -13 19 -23 21 -21 7 6 -19 45 -29 45 -5 0 -2 -11 8
-24z"/>
<path d="M3147 2797 c-6 -17 28 -45 41 -33 3 3 0 6 -7 6 -6 0 -15 10 -20 22
-6 18 -9 19 -14 5z"/>
<path d="M4240 2772 c0 -15 11 -21 27 -15 12 5 12 7 1 14 -17 11 -28 11 -28 1z"/>
<path d="M4472 2233 c-6 -3 -10 -8 -7 -13 2 -4 -22 -10 -54 -14 -53 -6 -60
-10 -74 -38 -11 -24 -12 -36 -4 -49 12 -19 -5 -49 -29 -49 -20 0 -27 -18 -30
-86 -3 -62 4 -78 35 -86 10 -2 14 10 15 47 1 48 2 49 39 58 21 5 36 12 34 16
-2 3 -10 21 -17 39 -8 17 -18 32 -23 32 -5 0 -1 7 7 15 18 18 90 11 83 -9 -3
-6 -9 -10 -15 -9 -5 1 -12 -7 -15 -17 -4 -14 0 -20 13 -20 47 0 100 -53 100
-100 0 -10 3 -26 6 -35 5 -13 8 -14 15 -3 5 7 9 23 9 34 0 13 8 24 19 27 10 2
27 23 37 46 11 26 24 41 36 41 22 0 23 -13 3 -34 -17 -17 -20 -46 -5 -46 6 0
10 5 10 10 0 6 10 10 21 10 18 0 21 -5 17 -30 -5 -33 14 -37 21 -4 4 22 20 44
32 44 4 0 10 -19 12 -42 3 -36 5 -39 11 -20 5 12 12 22 17 22 5 0 9 37 9 82 0
87 -11 98 -20 20 -7 -60 -33 -66 -38 -8 -3 30 1 41 17 53 12 8 21 21 21 29 0
8 5 14 10 14 21 0 10 36 -12 37 -11 1 -25 8 -30 15 -6 8 -8 -1 -4 -27 4 -33 2
-44 -14 -58 -26 -22 -30 -21 -30 3 0 11 5 20 10 20 16 0 12 18 -10 40 -21 21
-60 27 -60 10 0 -17 -26 -11 -44 9 -15 16 -23 18 -43 10 -19 -7 -32 -6 -47 4
-11 8 -27 12 -34 10z"/>
<path d="M4025 2150 c4 -6 11 -8 16 -5 14 9 11 15 -7 15 -8 0 -12 -5 -9 -10z"/>
<path d="M4264 2124 c-18 -14 -18 -14 6 -3 31 14 36 19 24 19 -6 0 -19 -7 -30
-16z"/>
<path d="M3136 2075 c-11 -8 -16 -18 -12 -22 4 -4 11 -2 15 6 5 7 12 13 17 13
5 0 16 4 24 9 12 7 11 8 -5 8 -11 0 -29 -6 -39 -14z"/>
<path d="M3300 2079 c0 -5 5 -7 10 -4 6 3 10 8 10 11 0 2 -4 4 -10 4 -5 0 -10
-5 -10 -11z"/>
<path d="M3446 2054 c-13 -33 21 -47 45 -18 10 13 10 17 -2 25 -21 13 -36 11
-43 -7z"/>
<path d="M4160 2063 c0 -2 12 -14 27 -27 31 -27 53 -24 53 8 0 18 -6 21 -40
22 -22 1 -40 0 -40 -3z"/>
<path d="M3150 2040 c0 -5 7 -7 15 -4 8 4 15 8 15 10 0 2 -7 4 -15 4 -8 0 -15
-4 -15 -10z"/>
<path d="M3100 2030 c0 -5 10 -10 23 -10 18 0 19 2 7 10 -19 13 -30 13 -30 0z"/>
<path d="M3857 2024 c-4 -4 -7 -14 -7 -23 0 -11 3 -12 11 -4 6 6 10 16 7 23
-2 6 -7 8 -11 4z"/>
<path d="M3978 2003 c-24 -6 -23 -19 2 -26 15 -4 20 0 20 14 0 10 -1 18 -2 18
-2 -1 -11 -3 -20 -6z"/>
<path d="M4362 1956 c-17 -17 -23 -32 -20 -56 4 -39 27 -52 35 -20 3 12 11 19
19 16 18 -7 23 16 7 32 -16 16 -17 36 -2 26 7 -4 10 -1 7 6 -7 22 -21 20 -46
-4z"/>
<path d="M4440 1965 c0 -9 5 -13 10 -10 6 4 10 -7 10 -24 0 -17 5 -31 11 -31
6 0 9 16 7 37 -2 27 -8 39 -20 41 -11 2 -18 -3 -18 -13z"/>
<path d="M4204 1955 c-4 -8 -18 -15 -34 -15 -22 0 -32 -7 -44 -32 -32 -63 -18
-95 49 -111 11 -3 27 -8 36 -11 22 -10 41 34 24 57 -15 20 -45 23 -45 3 0 -8
-7 -16 -15 -20 -23 -9 -18 24 8 46 12 11 31 24 43 28 12 5 20 16 19 27 -2 39
-30 58 -41 28z"/>
<path d="M4614 1962 c-16 -2 -20 -8 -16 -28 5 -26 22 -34 22 -10 0 8 5 16 12
18 19 7 4 23 -18 20z"/>
<path d="M80 1950 c0 -5 5 -10 10 -10 6 0 10 -6 10 -14 0 -10 10 -14 32 -12
30 2 48 19 31 29 -20 11 -83 17 -83 7z"/>
<path d="M3720 1925 c0 -14 -4 -25 -10 -25 -16 0 -12 -19 10 -42 11 -12 20
-28 20 -35 0 -17 15 -17 30 2 9 11 9 22 2 44 -7 19 -7 31 -1 33 6 2 7 12 3 22
-5 14 -9 15 -15 4 -6 -8 -9 -9 -9 -2 0 7 -7 14 -15 18 -11 4 -15 -1 -15 -19z"/>
<path d="M4510 1943 c-1 -7 -3 -16 -4 -20 -1 -5 -5 -14 -10 -21 -10 -17 1 -29
15 -15 6 6 9 23 6 39 -2 16 -5 23 -7 17z"/>
<path d="M3580 1916 c0 -13 -4 -26 -8 -28 -11 -4 -24 -68 -14 -68 5 0 13 5 19
11 8 8 13 5 18 -9 3 -12 16 -24 28 -28 12 -3 28 -11 35 -17 7 -5 28 -11 47
-13 46 -4 46 17 0 62 -26 25 -34 40 -30 57 6 25 -8 53 -23 43 -10 -6 -2 -63
16 -108 7 -16 8 -28 3 -28 -7 0 -25 32 -31 55 -5 24 -22 45 -31 40 -5 -4 -9 5
-9 19 0 14 -4 28 -10 31 -6 3 -10 -5 -10 -19z"/>
<path d="M6 1921 c-4 -6 -6 -38 -5 -72 2 -50 5 -59 14 -45 7 9 17 16 23 16 18
0 22 31 7 58 -26 48 -32 55 -39 43z"/>
<path d="M3785 1920 c4 -6 11 -8 16 -5 14 9 11 15 -7 15 -8 0 -12 -5 -9 -10z"/>
<path d="M3885 1920 c-3 -5 1 -10 10 -10 9 0 13 5 10 10 -3 6 -8 10 -10 10 -2
0 -7 -4 -10 -10z"/>
<path d="M4046 1922 c-3 -3 2 -11 12 -18 15 -11 12 -15 -33 -35 -27 -13 -53
-25 -56 -26 -4 -2 -9 10 -12 27 -7 31 -27 42 -27 15 0 -19 -29 -20 -36 -2 -8
21 -34 16 -34 -6 0 -11 -3 -17 -7 -14 -3 4 -13 -3 -21 -15 -11 -15 -12 -23 -4
-26 6 -2 8 -10 5 -17 -4 -11 -10 -12 -23 -5 -21 11 -38 -10 -61 -73 -12 -35
-12 -40 4 -52 16 -11 16 -14 2 -28 -8 -9 -15 -24 -15 -33 0 -14 3 -15 12 -6 7
7 20 12 30 12 10 0 18 5 18 10 0 6 -4 10 -10 10 -17 0 -11 18 8 23 14 4 14 5
-3 6 -58 4 -55 51 4 51 20 0 43 5 51 10 9 6 11 10 3 10 -7 0 -10 7 -7 15 7 17
34 21 34 5 0 -6 13 -5 33 3 22 10 40 11 57 5 16 -6 26 -5 28 1 8 23 29 10 26
-15 -1 -15 4 -34 12 -42 13 -13 21 -13 54 -2 21 7 48 10 60 7 28 -7 68 33 45
46 -18 10 -35 1 -35 -19 0 -8 -5 -14 -11 -14 -5 0 -9 10 -7 23 2 13 -2 22 -9
21 -7 -1 -22 -2 -33 -2 -11 -1 -20 -9 -20 -17 0 -22 -18 -18 -31 7 -9 16 -9
23 0 26 6 2 11 15 11 28 0 14 4 22 10 19 6 -4 10 6 10 24 0 16 3 36 6 44 5 14
-29 31 -40 19z"/>
<path d="M4700 1909 c0 -5 5 -7 10 -4 6 3 10 8 10 11 0 2 -4 4 -10 4 -5 0 -10
-5 -10 -11z"/>
<path d="M3470 1900 c0 -5 5 -10 11 -10 5 0 7 5 4 10 -3 6 -8 10 -11 10 -2 0
-4 -4 -4 -10z"/>
<path d="M76 1892 c-2 -4 -1 -14 5 -22 7 -12 9 -10 9 8 0 23 -5 28 -14 14z"/>
<path d="M3378 1884 c-27 -14 -30 -43 -5 -40 7 0 12 -3 12 -9 0 -5 -5 -9 -12
-9 -6 1 -9 -5 -6 -12 7 -19 12 -18 39 12 l24 25 12 -25 c6 -15 15 -26 19 -26
4 0 15 -3 25 -7 13 -5 16 -3 11 10 -3 9 -2 19 3 22 6 4 10 14 10 23 0 13 -3
12 -16 -6 -20 -29 -34 -28 -34 4 0 18 -4 25 -14 21 -10 -4 -12 0 -9 14 6 23
-19 25 -59 3z"/>
<path d="M3790 1884 c0 -8 5 -12 10 -9 6 3 10 10 10 16 0 5 -4 9 -10 9 -5 0
-10 -7 -10 -16z"/>
<path d="M105 1870 c-3 -6 1 -7 9 -4 18 7 21 14 7 14 -6 0 -13 -4 -16 -10z"/>
<path d="M1593 1866 c4 -9 -1 -17 -11 -20 -10 -4 -23 -26 -31 -52 -8 -25 -22
-51 -32 -57 -11 -7 -19 -15 -19 -20 0 -4 11 0 25 9 14 9 34 14 45 11 11 -3 18
-1 15 4 -7 11 40 23 55 14 16 -10 2 -24 -19 -18 -13 3 -20 -1 -23 -14 -2 -10
-10 -18 -18 -19 -8 -1 -39 -2 -69 -2 -49 -2 -52 -4 -40 -19 13 -15 12 -15 -9
-4 -18 10 -26 10 -38 0 -12 -10 -13 -9 -8 5 3 9 1 16 -5 16 -6 0 -11 -8 -11
-18 0 -9 -9 -23 -20 -30 -16 -10 -20 -10 -20 2 0 14 -44 31 -59 22 -20 -13 -5
28 16 41 37 24 27 34 -12 12 -19 -12 -33 -25 -30 -29 3 -4 -4 -6 -15 -3 -21 6
-29 -12 -8 -19 16 -6 19 -38 2 -38 -13 0 -16 -6 -30 -85 l-8 -40 -6 50 c-3 28
-9 55 -13 62 -4 6 -3 14 3 18 5 3 10 12 10 18 -1 7 -9 2 -20 -11 -18 -21 -39
-15 -25 8 3 6 -1 13 -9 16 -9 3 -13 11 -10 16 4 6 1 9 -7 6 -19 -6 -24 -39 -8
-49 7 -4 10 -11 6 -16 -5 -4 -12 -1 -17 7 -5 8 -12 11 -16 7 -4 -4 -13 -2 -21
4 -10 9 -13 8 -13 -2 0 -11 -2 -11 -10 1 -8 12 -10 11 -10 -7 0 -12 5 -23 10
-25 6 -2 2 -13 -9 -25 -12 -12 -18 -29 -15 -37 10 -26 -12 -18 -26 10 -12 22
-12 27 0 34 8 6 20 10 27 10 12 0 6 37 -8 46 -12 7 -51 -35 -46 -51 4 -9 -1
-11 -16 -8 -16 3 -18 2 -8 -5 18 -13 -3 -52 -27 -51 -14 0 -14 2 3 10 17 8 16
9 -8 5 -27 -3 -27 -3 -11 21 24 37 8 40 -25 4 -16 -17 -35 -31 -42 -31 -6 0
-2 8 9 19 26 22 28 31 6 31 -11 0 -14 6 -8 23 9 31 12 32 32 14 25 -23 52 -22
52 2 0 10 7 21 15 25 18 6 19 1 5 -25 -8 -15 -7 -19 5 -19 8 0 15 7 15 15 0 8
5 15 10 15 6 0 10 7 10 15 0 8 6 14 12 13 7 -2 14 7 16 20 3 18 -1 22 -24 22
-22 0 -24 3 -15 14 10 12 6 13 -26 6 -20 -5 -40 -7 -44 -4 -4 2 -20 -3 -35
-11 -33 -17 -57 -20 -34 -4 12 8 12 10 -5 7 -13 -2 -21 -12 -23 -31 -2 -15 -7
-25 -12 -22 -4 3 -6 15 -2 28 4 18 3 20 -9 11 -8 -6 -25 -11 -38 -12 -27 -1
-55 -22 -31 -22 11 -1 10 -3 -3 -11 -9 -5 -21 -7 -27 -4 -13 8 -1 35 16 35 8
0 14 5 14 10 0 6 6 10 13 10 8 0 28 7 45 16 35 17 40 37 19 76 -10 20 -15 23
-25 12 -7 -7 -12 -17 -12 -23 0 -12 -27 -8 -42 7 -19 19 -28 14 -28 -13 0 -14
-6 -25 -14 -25 -7 0 -22 -11 -32 -25 -20 -27 -49 -33 -57 -12 -4 10 -6 10 -6
0 -1 -7 -12 -13 -26 -13 -14 0 -25 -4 -25 -9 0 -5 -9 -11 -21 -14 -19 -5 -20
-3 -14 31 4 20 11 41 16 46 14 15 11 26 -6 26 -8 0 -15 7 -15 17 0 14 -2 15
-17 1 -10 -9 -29 -19 -43 -22 -17 -5 -21 -4 -11 2 17 12 0 24 -18 13 -9 -6
-11 -17 -6 -32 7 -22 5 -22 -19 6 -14 17 -26 24 -26 16 0 -17 -29 -40 -51 -41
-21 0 -35 -50 -18 -60 15 -10 3 -30 -18 -30 -9 0 -13 6 -9 15 8 22 -39 51 -58
35 -18 -14 -31 -70 -19 -79 16 -10 23 -51 9 -51 -6 0 -12 10 -13 21 -2 28 -23
50 -30 32 -6 -17 -23 -17 -23 0 0 7 -5 18 -12 25 -9 9 -16 8 -29 -4 -15 -14
-20 -14 -31 -3 -14 15 -20 59 -8 59 4 0 12 -12 19 -27 12 -26 12 -26 32 -7 13
14 17 27 13 39 -7 17 -8 17 -15 -3 -9 -25 -29 -30 -29 -8 0 8 -2 21 -5 28 -4
9 4 19 17 26 15 7 18 11 8 11 -9 1 -22 -5 -28 -11 -10 -10 -15 -10 -22 1 -7
12 -11 12 -24 -2 -17 -17 -22 -62 -6 -52 5 3 10 -1 10 -9 0 -9 -4 -16 -10 -16
-5 0 -10 -10 -10 -21 0 -18 2 -20 16 -8 13 11 14 9 9 -14 -6 -24 -5 -27 16
-25 13 2 27 7 30 12 4 5 15 6 24 2 14 -5 15 -9 5 -21 -7 -8 -18 -15 -25 -15
-7 0 -16 -7 -19 -16 -8 -21 -8 -20 12 -40 14 -15 14 -17 1 -12 -9 4 -22 -1
-31 -11 -13 -16 -13 -20 8 -39 13 -11 26 -16 30 -11 3 5 14 9 25 9 21 0 27 20
7 20 -7 0 -5 5 5 11 9 6 15 14 12 20 -4 5 -1 9 4 9 6 0 11 -11 11 -25 0 -20 5
-25 28 -26 26 0 26 -1 5 -9 -20 -8 -21 -12 -12 -40 12 -34 21 -37 43 -14 15
14 20 28 17 47 0 4 4 7 9 7 6 0 10 5 10 10 0 6 -8 10 -17 10 -14 0 -12 5 10
24 30 26 21 44 -12 26 -33 -17 -46 -11 -23 10 12 11 26 20 32 20 5 0 10 9 10
19 0 36 12 51 39 51 20 0 23 -2 11 -10 -22 -15 6 -30 42 -23 24 5 28 2 28 -16
0 -11 -9 -26 -20 -33 -11 -7 -20 -18 -20 -24 0 -6 -10 -9 -22 -7 -18 3 -27 -4
-41 -33 -17 -35 -17 -36 0 -29 10 4 30 9 44 10 84 8 122 34 92 63 -8 8 -13 26
-11 41 3 34 -8 51 -33 51 -11 0 -17 5 -14 10 8 13 48 13 78 -1 17 -8 24 -19
24 -40 0 -29 -21 -40 -30 -16 -3 6 -6 0 -6 -14 -1 -23 2 -25 29 -21 25 3 29 8
25 23 -8 23 13 26 22 3 4 -10 0 -20 -10 -26 -27 -15 -20 -38 11 -39 41 -2 66
2 72 11 10 16 37 -15 30 -34 -5 -14 -9 -16 -14 -7 -6 9 -14 7 -31 -9 -13 -12
-28 -19 -33 -16 -5 3 -15 -1 -22 -9 -7 -8 -19 -15 -26 -15 -8 0 -14 -6 -14
-14 0 -20 -57 -31 -75 -16 -23 19 -18 29 21 36 30 5 33 8 20 16 -12 7 -22 5
-33 -4 -11 -9 -17 -10 -20 -2 -4 12 -50 7 -59 -7 -3 -5 -14 -9 -25 -9 -10 0
-19 -4 -19 -10 0 -5 -7 -10 -15 -10 -8 0 -15 -4 -15 -8 0 -5 -9 -17 -19 -29
-14 -14 -21 -39 -23 -87 -3 -36 -7 -68 -10 -71 -3 -3 -8 23 -12 57 -3 34 -11
65 -17 69 -8 5 -8 8 0 10 18 6 -19 99 -39 99 -18 0 -60 -43 -60 -61 0 -6 -9
-8 -22 -4 -16 4 -19 3 -9 -3 11 -8 11 -11 0 -16 -8 -3 -1 -4 14 -1 21 4 27 2
21 -6 -7 -12 -5 -12 44 8 6 3 12 0 12 -6 0 -6 -9 -11 -20 -11 -13 0 -20 -7
-20 -19 0 -11 -14 -29 -30 -41 -24 -17 -30 -29 -30 -60 0 -29 4 -39 20 -43 11
-3 20 -12 20 -21 0 -9 5 -16 10 -16 6 0 10 6 10 14 0 18 32 14 38 -4 3 -9 -1
-11 -12 -7 -12 5 -16 1 -16 -16 0 -17 -6 -23 -25 -25 -19 -1 -25 3 -25 18 0
10 -4 22 -10 25 -18 11 -11 -37 8 -51 16 -13 16 -13 0 -14 -17 0 -18 -33 -18
-550 l0 -550 2400 0 2400 0 0 415 0 416 -39 -23 c-22 -13 -42 -32 -45 -42 -5
-21 -15 -18 -20 6 -6 29 -19 48 -28 42 -6 -4 -5 -10 3 -15 8 -5 9 -9 3 -9 -20
0 -45 26 -48 50 -5 37 -28 82 -36 69 -4 -6 -10 4 -13 21 -4 17 -11 29 -16 26
-5 -3 -7 -15 -4 -25 3 -13 -5 -29 -22 -47 -22 -22 -33 -25 -61 -21 -26 4 -34
2 -34 -9 0 -10 -8 -15 -22 -13 -55 6 -108 -52 -95 -102 4 -15 2 -19 -9 -15 -8
3 -17 0 -20 -8 -8 -22 -72 -19 -84 5 -6 11 -15 17 -19 14 -19 -11 -19 27 -1
58 21 34 27 77 10 77 -5 0 -10 -4 -10 -9 0 -5 -11 -4 -24 2 -15 7 -24 19 -23
31 3 27 -16 30 -43 6 l-23 -20 24 0 c21 0 22 -2 8 -15 -16 -16 -49 -11 -49 8
0 6 -13 -2 -30 -18 -16 -16 -30 -33 -30 -38 0 -14 -32 -36 -51 -37 -22 0 -45
29 -53 65 -7 32 -47 61 -96 68 -14 2 -33 7 -42 11 -22 10 -38 0 -38 -24 0 -13
-15 -26 -46 -41 -26 -11 -49 -29 -51 -40 -3 -11 -10 -16 -17 -12 -6 4 -20 8
-31 8 -29 2 -72 22 -79 37 -5 10 -7 10 -12 1 -3 -8 -24 -13 -50 -13 -38 0 -49
-5 -71 -30 -14 -17 -28 -29 -31 -26 -2 3 -13 1 -24 -5 -11 -6 -17 -13 -14 -16
3 -4 1 -12 -4 -18 -7 -8 -7 -27 -2 -53 9 -36 7 -44 -17 -72 -35 -41 -65 -45
-96 -14 -27 27 -35 87 -12 101 14 9 37 48 37 63 0 5 -7 10 -15 10 -8 0 -15 5
-15 10 0 6 13 10 29 10 30 0 81 37 81 58 0 6 -9 16 -20 22 -13 7 -20 7 -20 1
0 -6 -11 -13 -24 -17 -14 -3 -23 -11 -20 -18 2 -6 -3 -12 -13 -13 -72 -7 -108
-14 -111 -23 -2 -5 -16 -10 -30 -10 -15 0 -36 -7 -46 -15 -29 -22 -43 -18 -50
11 -5 17 -18 30 -37 37 -18 7 -27 17 -24 25 8 22 -56 4 -82 -23 -12 -12 -42
-32 -66 -44 -25 -12 -48 -28 -51 -36 -6 -17 18 -43 51 -56 30 -11 29 -30 -1
-58 -30 -28 -61 -21 -70 14 -4 14 -12 25 -18 25 -9 0 -9 -3 0 -12 7 -7 12 -17
12 -24 0 -17 -86 -104 -104 -104 -8 0 -18 -4 -21 -10 -9 -14 -97 -12 -116 3
-44 34 -47 97 -6 134 31 29 65 34 105 17 45 -18 67 -18 88 3 9 10 29 19 43 21
35 5 35 6 9 34 -59 62 -130 79 -144 36 -10 -34 -44 -64 -54 -48 -5 8 -17 10
-34 6 -14 -3 -51 -3 -82 0 -50 6 -57 10 -66 35 -9 26 -15 29 -53 29 -26 0 -45
-5 -48 -12 -2 -7 -8 -9 -13 -5 -5 4 -4 11 2 15 7 4 11 40 11 85 -1 69 -3 77
-18 72 -10 -3 -21 0 -26 8 -4 8 -19 18 -31 22 -21 6 -22 5 -14 -12 11 -20 6
-66 -11 -101 -11 -23 -27 -25 -69 -8 -11 5 -18 1 -23 -13 -8 -25 -41 -37 -60
-21 -11 9 -18 9 -30 -4 -15 -14 -62 -15 -85 -1 -5 3 -10 2 -10 -3 0 -6 -11
-13 -25 -16 -14 -4 -25 -11 -25 -16 0 -5 -10 -19 -22 -30 -25 -23 -59 -20 -85
5 -16 17 -53 20 -53 5 0 -5 -9 -10 -19 -10 -11 0 -22 -6 -24 -12 -3 -7 -6 -4
-6 7 -1 17 -3 18 -11 5 -9 -13 -12 -13 -25 3 -7 11 -11 26 -8 34 9 23 -18 65
-39 60 -11 -3 -22 2 -28 14 -15 26 -29 24 -40 -7 -7 -16 -14 -23 -22 -17 -7 4
-23 6 -35 4 -16 -2 -23 3 -23 14 0 12 6 15 23 10 19 -5 20 -4 6 7 -9 7 -19 25
-22 40 -4 14 -9 33 -13 41 -3 8 6 27 20 42 14 15 23 32 20 37 -3 4 -2 8 3 7 4
-1 16 1 26 5 28 13 47 -1 45 -31 -1 -15 -6 -34 -11 -40 -13 -18 1 -16 19 2 9
8 26 15 39 15 15 0 26 7 30 20 5 15 14 19 41 18 39 -1 45 2 45 28 -1 42 -8 67
-23 78 -17 12 -33 54 -30 74 2 6 -2 12 -8 12 -5 0 -10 7 -10 15 0 20 -34 19
-54 -1 -18 -18 -21 -34 -6 -34 6 0 10 -7 10 -16 0 -10 -5 -12 -12 -7 -7 4 -25
6 -40 4 -23 -2 -28 2 -28 18 0 12 5 21 12 21 6 0 9 2 7 5 -9 8 -49 -7 -49 -20
0 -7 -12 -12 -26 -12 -22 0 -25 3 -21 23 5 26 -2 31 -20 13 -7 -7 -15 -3 -26
15 -15 22 -15 25 -1 30 9 3 24 6 33 6 12 0 17 7 15 23 -1 12 -3 23 -4 25 -2 1
-3 8 -4 15 -2 14 -28 10 -38 -6 -4 -7 -3 -16 2 -21 19 -19 9 -26 -35 -26 -49
0 -62 17 -17 22 23 2 27 7 25 31 -1 18 3 27 13 27 8 0 14 4 14 9 0 19 -21 22
-45 7 -27 -18 -75 -22 -75 -6 0 6 7 10 16 10 11 0 14 5 10 16 -5 14 -4 15 8 5
12 -10 13 -9 9 9 -6 22 -51 39 -62 23 -3 -6 -16 -13 -29 -17 -12 -4 -20 -12
-16 -17 3 -5 14 -7 25 -4 11 4 19 3 18 -2 -1 -4 0 -12 1 -18 1 -5 3 -19 4 -30
0 -11 7 -20 15 -20 8 0 16 -6 19 -14 3 -9 -1 -11 -16 -7 -11 4 -23 2 -27 -3
-3 -6 6 -13 20 -17 17 -4 24 -11 21 -21 -4 -9 -2 -11 6 -7 7 4 24 9 38 10 23
3 25 0 24 -34 -1 -58 -26 -84 -41 -44 -4 9 -15 23 -25 30 -10 7 -18 19 -18 27
0 16 -35 29 -50 20 -5 -3 -10 -15 -10 -25 0 -10 -6 -21 -12 -24 -10 -3 -8 -9
4 -19 10 -8 15 -17 11 -21 -4 -3 4 -5 17 -4 12 2 25 -3 27 -9 3 -9 -6 -13 -26
-13 -19 0 -34 -6 -37 -15 -4 -8 -15 -15 -25 -15 -14 0 -19 7 -19 30 0 17 -4
30 -10 30 -5 0 -7 -7 -4 -15 5 -11 -1 -15 -19 -15 -14 0 -27 -7 -31 -15 -3 -8
-12 -15 -21 -15 -11 0 -14 6 -9 25 5 19 2 25 -10 25 -16 0 -56 -37 -56 -53 0
-12 -26 -37 -39 -37 -6 0 -11 -4 -11 -10 0 -5 5 -10 10 -10 15 0 12 -36 -5
-50 -8 -7 -15 -9 -15 -4 0 4 -5 3 -12 -4 -8 -8 -17 -8 -30 -1 -14 8 -19 7 -17
-3 4 -33 -2 -68 -12 -68 -7 0 -17 -7 -24 -17 -14 -19 -50 -10 -42 11 7 18 -12
36 -39 36 -11 0 -33 11 -48 25 -30 28 -67 32 -86 10 -13 -15 -42 -20 -53 -9
-3 4 -2 15 4 26 9 16 17 19 44 14 25 -5 36 -3 43 10 8 15 10 15 15 0 11 -27
43 -18 73 22 15 20 30 39 33 42 4 3 6 16 6 30 0 22 -4 25 -29 22 -27 -4 -28
-2 -24 27 5 31 4 31 -43 31 l-48 0 4 34 c4 27 -1 39 -20 58 -32 30 -31 38 5
38 17 0 30 -5 30 -11 0 -6 7 -9 15 -5 8 3 15 1 15 -3 0 -5 -6 -11 -14 -14 -8
-3 -13 -14 -12 -24 2 -13 12 -18 34 -19 18 0 32 3 32 8 0 4 9 8 21 8 16 0 19
-4 14 -17 -17 -42 -16 -50 4 -56 12 -3 21 -13 21 -25 0 -19 38 -52 60 -52 17
0 -13 40 -30 40 -11 1 -9 6 8 19 12 11 22 24 22 29 0 5 11 13 25 16 14 4 24
10 24 14 -4 27 3 31 59 27 31 -2 63 -4 70 -4 7 -1 17 -12 22 -26 10 -25 43
-34 55 -15 4 6 12 6 24 -2 13 -8 23 -8 37 1 17 11 16 12 -8 8 -19 -3 -28 0
-28 9 0 9 11 14 30 14 20 0 30 5 30 15 0 8 8 15 18 16 9 0 5 4 -11 9 -32 10
-77 49 -77 67 0 7 -17 -3 -37 -22 -29 -27 -35 -38 -25 -44 10 -6 7 -10 -12
-13 -26 -5 -37 14 -16 27 16 10 12 25 -7 25 -9 0 -13 3 -9 8 4 4 17 7 29 7 13
0 23 7 25 17 3 15 -2 17 -30 13 -18 -3 -27 -3 -20 1 6 3 12 11 12 18 0 7 6 13
13 14 44 4 160 41 168 53 6 10 11 11 17 3 10 -15 112 -18 112 -3 0 7 3 9 7 6
3 -4 11 -3 17 2 16 12 56 20 56 11 0 -5 -12 -12 -27 -17 -22 -8 -24 -10 -10
-16 24 -9 63 29 48 47 -8 10 -7 17 3 25 12 10 14 9 9 -7 -8 -30 15 -36 29 -8
6 14 15 26 20 26 5 0 13 11 18 25 13 33 30 32 30 -2 0 -21 3 -24 12 -15 20 20
40 15 28 -7 -11 -22 -14 -61 -3 -61 4 0 20 12 36 28 28 25 29 26 23 5 -5 -14
-3 -23 3 -23 7 0 6 -12 -3 -35 -9 -20 -11 -35 -5 -35 5 0 12 7 15 15 8 19 27
19 64 0 30 -15 87 -7 61 9 -6 4 -19 2 -28 -6 -15 -11 -16 -11 -10 5 5 13 1 17
-19 17 -19 0 -25 4 -22 18 2 10 12 16 23 15 11 -1 14 0 8 3 -18 8 -16 24 2 24
8 0 15 6 15 13 0 7 9 20 19 29 18 15 21 15 37 -3 17 -19 50 -27 39 -10 -3 5 0
13 6 16 5 4 8 13 5 21 -3 8 -1 14 4 14 6 0 10 -3 10 -8 0 -4 12 -14 26 -23 22
-13 23 -17 10 -28 -12 -10 -15 -8 -21 8 -3 12 -11 21 -16 21 -6 0 -7 -4 -4
-10 3 -5 2 -18 -4 -28 -8 -15 -5 -17 15 -17 13 1 33 11 44 23 l20 21 -30 17
c-40 24 -28 37 15 16 27 -13 35 -23 35 -44 0 -16 4 -28 8 -28 11 0 10 54 -1
61 -12 8 1 31 14 24 5 -3 6 0 3 8 -4 11 1 13 20 10 20 -4 26 -11 26 -30 0 -18
-4 -24 -15 -19 -11 4 -15 -2 -15 -24 0 -23 4 -30 20 -30 15 0 20 7 20 25 0 14
5 25 10 25 6 0 10 -5 10 -11 0 -6 6 -5 13 3 8 7 16 42 20 76 4 52 3 62 -9 58
-20 -8 -17 10 5 31 11 10 21 27 23 38 3 21 3 21 -74 9 -37 -6 -50 -25 -27 -40
6 -3 8 -15 6 -26 -3 -11 0 -29 6 -39 10 -16 9 -21 -3 -29 -11 -7 -16 -5 -19 8
-2 9 -13 25 -25 34 -11 10 -31 27 -42 39 -22 22 -44 19 -44 -6 0 -14 -45 -29
-60 -20 -8 5 -33 -39 -31 -55 2 -12 41 -6 41 6 0 8 5 14 10 14 6 0 10 -4 10
-10 0 -5 7 -10 15 -10 8 0 15 -4 15 -9 0 -15 -23 -26 -27 -14 -3 7 -20 9 -45
6 -28 -4 -43 -2 -49 8 -14 22 -10 49 6 49 8 0 22 18 31 40 9 22 20 40 25 40
14 0 11 30 -5 45 -8 9 -26 12 -46 9 -29 -5 -32 -3 -27 15 3 12 -1 22 -10 25
-10 4 -13 2 -10 -8z m-883 -116 c0 -5 -4 -10 -10 -10 -5 0 -10 5 -10 10 0 6 5
10 10 10 6 0 10 -4 10 -10z m1040 -50 c0 -5 -5 -10 -11 -10 -5 0 -7 5 -4 10 3
6 8 10 11 10 2 0 4 -4 4 -10z m-965 -39 c-3 -6 -11 -8 -17 -5 -6 4 -5 9 3 15
16 10 23 4 14 -10z m1005 -1 c0 -12 -7 -20 -17 -20 -15 0 -16 2 -3 10 13 9 13
10 0 10 -13 0 -13 1 0 10 20 13 20 13 20 -10z m-1226 -5 c-4 -8 -10 -15 -15
-15 -5 0 -9 -11 -9 -25 0 -14 -4 -25 -9 -25 -9 0 0 48 14 70 10 16 25 12 19
-5z m106 0 c0 -8 -7 -15 -16 -15 -14 0 -14 3 -4 15 7 8 14 15 16 15 2 0 4 -7
4 -15z m71 -36 c-14 -16 -21 -18 -21 -8 0 8 -3 10 -8 4 -9 -13 -32 -17 -32 -6
0 5 15 18 32 30 40 25 59 12 29 -20z m599 31 c11 -7 6 -10 -20 -10 -26 0 -31
3 -20 10 8 5 17 10 20 10 3 0 12 -5 20 -10z m240 -20 c0 -5 -4 -10 -10 -10 -5
0 -10 5 -10 10 0 6 5 10 10 10 6 0 10 -4 10 -10z m-750 -14 c0 -11 -19 -15
-25 -6 -3 5 1 10 9 10 9 0 16 -2 16 -4z m330 -34 c0 -15 -2 -15 -10 -2 -13 20
-13 33 0 25 6 -3 10 -14 10 -23z m-1044 -19 c-11 -11 -19 6 -11 24 8 17 8 17
12 0 3 -10 2 -21 -1 -24z m883 -35 c1 -5 -3 -8 -8 -8 -11 0 -21 37 -13 45 6 5
20 -19 21 -37z m-369 -11 c0 -2 -10 -12 -21 -23 -22 -19 -22 -19 -10 4 10 18
31 31 31 19z m-560 -11 c0 -3 -4 -8 -10 -11 -5 -3 -10 -1 -10 4 0 6 5 11 10
11 6 0 10 -2 10 -4z m605 -61 c-1 -16 -5 -42 -9 -58 -5 -18 -4 -32 4 -42 6 -8
9 -18 6 -24 -4 -5 0 -15 7 -23 7 -7 16 -22 19 -33 4 -16 0 -20 -19 -21 -19 -2
-22 2 -17 21 7 29 -19 55 -57 55 -21 0 -29 5 -29 18 0 23 -19 42 -36 35 -7 -2
-25 7 -40 21 l-28 25 25 20 c15 13 31 19 44 15 11 -4 30 -7 42 -8 12 0 21 -5
20 -11 -3 -15 26 -12 31 4 3 8 0 11 -7 7 -15 -10 -14 0 5 29 20 31 40 15 39
-30z m290 45 c3 -6 -1 -7 -9 -4 -18 7 -21 14 -7 14 6 0 13 -4 16 -10z m-245
-42 c0 -5 -4 -8 -10 -8 -5 0 -10 10 -10 23 0 18 2 19 10 7 5 -8 10 -18 10 -22z
m-130 12 c0 -5 -4 -10 -10 -10 -5 0 -10 5 -10 10 0 6 5 10 10 10 6 0 10 -4 10
-10z m340 0 c-8 -5 -22 -10 -30 -10 -13 0 -13 1 0 10 8 5 22 10 30 10 13 0 13
-1 0 -10z m-110 -20 c0 -5 -7 -10 -16 -10 -8 0 -12 5 -9 10 3 6 10 10 16 10 5
0 9 -4 9 -10z m-340 -57 c0 -7 -9 -13 -20 -13 -11 0 -20 -6 -20 -14 0 -7 -8
-16 -17 -20 -10 -3 -25 -9 -33 -12 -10 -5 -9 0 4 15 17 19 17 21 3 21 -10 0
-17 -4 -17 -8 0 -5 -13 -9 -30 -10 -16 0 -30 4 -30 9 0 5 8 9 18 9 10 0 24 6
30 13 7 6 16 12 20 13 10 1 45 14 62 23 16 9 30 -4 30 -26z m366 -21 c-22 -5
-30 3 -21 18 5 8 11 7 22 -2 15 -12 14 -13 -1 -16z m-36 -2 c0 -5 -4 -10 -10
-10 -5 0 -10 5 -10 10 0 6 5 10 10 10 6 0 10 -4 10 -10z m-510 -14 c0 -24 -31
-49 -44 -36 -8 8 -4 16 14 30 30 24 30 24 30 6z m700 -37 c0 -6 -4 -7 -10 -4
-5 3 -10 11 -10 16 0 6 5 7 10 4 6 -3 10 -11 10 -16z m-900 -30 c0 -5 -9 -19
-20 -31 l-20 -22 0 31 c0 17 6 33 13 36 15 5 27 -1 27 -14z m365 -16 c-9 -35
-9 -36 -34 -28 -12 3 -21 15 -21 25 0 17 9 22 54 29 4 0 5 -11 1 -26z m-65 7
c0 -5 -5 -10 -11 -10 -5 0 -7 5 -4 10 3 6 8 10 11 10 2 0 4 -4 4 -10z m5 -70
c3 -11 12 -20 19 -20 7 0 21 9 31 20 10 11 29 20 42 20 31 0 31 -33 -2 -68
-22 -23 -23 -28 -9 -31 13 -2 14 -5 4 -11 -8 -5 -26 -2 -43 6 -28 15 -29 15
-64 -25 -19 -23 -38 -39 -43 -36 -5 3 -11 1 -15 -5 -3 -5 -15 -10 -26 -10 -19
0 -25 11 -12 24 4 3 7 21 7 39 1 30 4 32 41 37 39 5 40 6 18 20 -27 17 -30 30
-8 30 9 0 18 7 21 15 9 21 32 19 39 -5z m-115 -15 c10 -12 10 -18 0 -30 -17
-21 -25 -19 -38 9 -16 36 12 52 38 21z m955 -4 c3 -6 -3 -15 -14 -21 -12 -6
-18 -16 -15 -25 4 -8 2 -15 -4 -15 -5 0 -12 10 -16 23 -8 32 -7 39 4 32 6 -3
10 -1 10 4 0 14 27 14 35 2z m-1035 -18 c0 -10 -10 -31 -23 -46 -21 -26 -23
-27 -44 -12 -31 22 -29 49 5 62 42 17 62 15 62 -4z m1150 -23 c-8 -5 -17 -7
-19 -4 -3 3 1 9 9 14 8 5 17 7 19 4 3 -3 -1 -9 -9 -14z m100 -20 c0 -11 -6
-20 -14 -20 -9 0 -12 7 -9 20 3 11 9 20 14 20 5 0 9 -9 9 -20z m-438 -31 c2
-5 12 -11 23 -13 20 -3 34 -26 16 -26 -6 0 -11 -9 -11 -21 0 -11 -5 -17 -10
-14 -6 4 -7 12 -3 18 4 7 -5 4 -21 -6 -20 -13 -31 -15 -40 -8 -17 14 -8 61 10
61 8 0 14 5 14 10 0 13 17 13 22 -1z m138 -9 c0 -5 -2 -10 -4 -10 -3 0 -8 5
-11 10 -3 6 -1 10 4 10 6 0 11 -4 11 -10z m109 -12 c4 -11 6 -31 3 -44 -3 -20
-10 -22 -60 -21 -34 0 -58 -5 -60 -12 -2 -6 -10 -11 -18 -11 -8 0 -14 -4 -14
-10 0 -5 -10 -10 -22 -10 -28 1 -109 38 -88 40 35 4 57 8 83 15 17 5 27 3 27
-4 0 -6 -7 -11 -15 -11 -8 0 -15 -4 -15 -10 0 -6 10 -5 25 2 14 6 25 19 25 30
0 10 5 18 11 18 5 0 8 4 5 9 -3 5 4 12 17 16 12 5 31 11 42 15 34 13 45 11 54
-12z m-1209 -4 c0 -2 -12 -4 -26 -4 -14 0 -23 4 -20 9 6 8 46 4 46 -5z m866
-12 c-2 -15 -5 -30 -5 -34 -1 -5 -8 -8 -16 -8 -21 0 -33 -30 -28 -66 5 -33
-13 -49 -42 -38 -17 7 -22 94 -5 94 6 0 10 7 10 16 0 8 5 12 10 9 6 -3 10 1
10 10 0 9 -4 13 -10 10 -10 -6 -14 17 -5 27 3 2 23 5 45 6 39 2 40 1 36 -26z
m30 2 c-4 -9 -9 -15 -11 -12 -3 3 -3 13 1 22 4 9 9 15 11 12 3 -3 3 -13 -1
-22z m374 -6 c0 -3 -11 -1 -25 5 -20 10 -22 13 -7 18 15 6 31 -6 32 -23z
m-837 -109 c5 -3 2 -9 -7 -12 -12 -5 -16 0 -16 15 0 12 3 17 8 12 4 -5 11 -12
15 -15z m24 -75 c-3 -3 -12 -4 -19 -1 -8 3 -5 6 6 6 11 1 17 -2 13 -5z m407 0
c10 -4 16 -18 16 -38 0 -39 -8 -49 -26 -33 -7 7 -20 18 -29 25 -12 10 -13 18
-5 32 11 21 19 24 44 14z m-404 -40 c0 -2 -9 -4 -21 -4 -11 0 -18 4 -14 10 5
8 35 3 35 -6z m3339 -15 c64 -23 81 -110 31 -161 -27 -26 -35 -29 -68 -23 -97
17 -116 133 -30 180 30 17 30 17 67 4z m-2414 -49 c-9 -15 18 -50 38 -50 28 0
14 -25 -16 -28 -14 -2 -28 -11 -30 -20 -3 -9 -5 -2 -6 16 0 17 -5 32 -10 32
-5 0 -4 14 2 30 6 17 15 30 20 30 4 0 6 -4 2 -10z m1205 -30 c0 -5 -4 -10 -10
-10 -5 0 -10 5 -10 10 0 6 5 10 10 10 6 0 10 -4 10 -10z m308 -89 c5 -62 -17
-83 -77 -77 -51 6 -74 27 -65 63 4 14 2 23 -5 23 -6 0 -11 5 -11 11 0 5 5 7
10 4 6 -3 10 1 10 10 0 18 18 39 40 47 8 3 33 -4 55 -16 36 -19 40 -26 43 -65z
m-1023 58 c4 -11 5 -22 3 -23 -53 -40 -78 -39 -78 3 0 35 6 41 41 41 19 0 30
-6 34 -21z m2388 -14 c-6 -16 -16 -19 -26 -8 -9 8 13 34 24 28 4 -3 6 -12 2
-20z m-3768 -163 c-3 -3 -11 0 -18 7 -9 10 -8 11 6 5 10 -3 15 -9 12 -12z"/>
<path d="M518 1423 c7 -3 16 -2 19 1 4 3 -2 6 -13 5 -11 0 -14 -3 -6 -6z"/>
<path d="M602 1373 c2 -17 10 -29 21 -31 13 -3 17 3 17 27 0 25 -4 31 -21 31
-16 0 -20 -5 -17 -27z"/>
<path d="M4590 1855 c-10 -19 -11 -28 -2 -37 9 -9 7 -17 -7 -32 -10 -12 -23
-34 -28 -51 -8 -24 -7 -34 9 -49 18 -19 18 -19 18 3 0 14 7 25 20 28 11 3 20
9 20 14 0 5 5 9 11 9 6 0 1 -12 -10 -27 -12 -14 -19 -29 -16 -32 4 -3 10 1 14
8 5 8 14 10 21 6 8 -5 11 -4 6 3 -4 6 5 19 19 28 14 9 28 28 31 41 5 18 9 21
15 11 11 -17 44 16 53 53 5 23 3 27 -19 27 -17 0 -30 -10 -44 -34 -22 -36 -41
-45 -41 -18 0 13 -3 14 -14 5 -7 -6 -21 -9 -30 -5 -18 7 -21 20 -7 28 5 3 11
15 14 26 7 29 -17 25 -33 -5z"/>
<path d="M205 1860 c-3 -5 -1 -10 4 -10 6 0 11 5 11 10 0 6 -2 10 -4 10 -3 0
-8 -4 -11 -10z"/>
<path d="M4786 1846 c3 -13 -1 -40 -10 -60 -15 -36 -10 -46 12 -24 15 15 16
108 2 108 -6 0 -8 -10 -4 -24z"/>
<path d="M868 1853 c7 -3 16 -2 19 1 4 3 -2 6 -13 5 -11 0 -14 -3 -6 -6z"/>
<path d="M2680 1850 c0 -5 5 -10 10 -10 6 0 10 5 10 10 0 6 -4 10 -10 10 -5 0
-10 -4 -10 -10z"/>
<path d="M2785 1816 c-36 -44 -45 -74 -12 -42 8 8 17 12 20 9 4 -3 20 0 37 7
22 9 30 19 28 32 -2 10 -7 18 -12 18 -5 -1 -12 4 -16 10 -5 8 -20 -4 -45 -34z"/>
<path d="M4660 1850 c0 -5 4 -10 9 -10 6 0 13 5 16 10 3 6 -1 10 -9 10 -9 0
-16 -4 -16 -10z"/>
<path d="M545 1840 c-3 -6 -3 -19 0 -30 4 -11 0 -29 -9 -42 -18 -26 -21 -48
-6 -48 6 0 10 7 10 15 0 8 9 15 20 15 15 0 20 7 20 29 0 17 -5 33 -10 36 -6 4
-8 10 -5 15 3 5 1 11 -4 14 -5 4 -12 2 -16 -4z"/>
<path d="M2012 1841 c-19 -12 -11 -55 11 -59 12 -2 17 3 17 17 0 12 -5 21 -11
21 -6 0 -9 7 -5 15 6 17 6 18 -12 6z"/>
<path d="M2532 1843 c-10 -4 -10 -8 -1 -19 15 -18 25 -18 32 0 6 16 -11 26
-31 19z"/>
<path d="M100 1830 c0 -5 5 -10 10 -10 6 0 10 5 10 10 0 6 -4 10 -10 10 -5 0
-10 -4 -10 -10z"/>
<path d="M132 1815 c3 -14 1 -25 -5 -25 -8 0 -6 -19 7 -70 3 -8 5 -17 5 -20 1
-5 31 50 31 57 0 2 -4 1 -10 -2 -5 -3 -10 1 -10 10 0 11 5 15 15 11 9 -3 15 0
15 9 0 8 -7 15 -16 15 -11 0 -15 6 -11 20 3 14 0 20 -10 20 -11 0 -14 -7 -11
-25z"/>
<path d="M1720 1830 c0 -5 4 -10 9 -10 5 0 13 -9 16 -20 3 -11 13 -20 21 -20
12 0 10 7 -8 29 -24 31 -38 38 -38 21z"/>
<path d="M1810 1820 c0 -11 5 -20 10 -20 6 0 10 9 10 20 0 11 -4 20 -10 20 -5
0 -10 -9 -10 -20z"/>
<path d="M1860 1830 c0 -12 17 -12 45 0 17 7 15 9 -12 9 -18 1 -33 -3 -33 -9z"/>
<path d="M3047 1809 c-18 -32 -13 -59 10 -59 11 0 14 7 10 27 -3 18 0 31 10
39 14 9 14 12 1 16 -8 4 -20 -5 -31 -23z"/>
<path d="M3290 1828 c0 -6 -3 -9 -6 -5 -3 3 -24 -5 -45 -19 -21 -13 -43 -24
-49 -24 -5 0 -10 -5 -10 -10 0 -20 85 8 116 38 12 12 25 18 28 15 3 -4 6 -1 6
5 0 7 -9 12 -20 12 -11 0 -20 -5 -20 -12z"/>
<path d="M2705 1821 c-3 -6 -11 -9 -16 -6 -5 4 -9 2 -9 -3 0 -17 28 -21 34 -5
8 19 1 29 -9 14z"/>
<path d="M4555 1820 c-3 -5 -1 -10 4 -10 6 0 11 5 11 10 0 6 -2 10 -4 10 -3 0
-8 -4 -11 -10z"/>
<path d="M4451 1795 c-25 -26 -41 -32 -41 -14 0 6 -7 4 -15 -5 -8 -8 -15 -24
-15 -36 l0 -21 26 20 c15 12 33 21 40 21 14 0 37 36 32 50 -2 5 -14 -2 -27
-15z"/>
<path d="M860 1780 c-9 -16 -8 -20 5 -20 8 0 15 9 15 20 0 11 -2 20 -5 20 -2
0 -9 -9 -15 -20z"/>
<path d="M2643 1792 c-8 -5 -9 -13 -3 -22 7 -12 10 -12 16 3 8 21 3 29 -13 19z"/>
<path d="M3111 1784 c0 -11 3 -14 6 -6 3 7 2 16 -1 19 -3 4 -6 -2 -5 -13z"/>
<path d="M3580 1780 c0 -12 7 -29 16 -37 14 -14 15 -13 12 17 -3 37 -28 55
-28 20z"/>
<path d="M610 1780 c-8 -5 -12 -11 -9 -14 2 -3 11 -1 19 4 8 5 12 11 9 14 -2
3 -11 1 -19 -4z"/>
<path d="M4283 1774 c-3 -9 4 -24 16 -35 26 -24 27 -40 4 -33 -14 5 -15 4 -4
-4 21 -15 38 -4 50 30 13 36 13 36 -28 48 -25 7 -33 6 -38 -6z"/>
<path d="M4502 1773 c-21 -39 -33 -75 -22 -68 6 3 10 11 10 17 0 6 7 19 16 29
9 10 14 24 12 31 -3 9 -9 6 -16 -9z"/>
<path d="M1826 1763 c-6 -14 -5 -15 5 -6 7 7 10 15 7 18 -3 3 -9 -2 -12 -12z"/>
<path d="M1100 1760 c0 -5 -7 -10 -15 -10 -13 0 -13 -2 -3 -14 11 -11 16 -10
30 7 22 24 22 27 3 27 -8 0 -15 -4 -15 -10z"/>
<path d="M1214 1758 c-3 -4 -1 -8 5 -8 5 0 16 -3 25 -6 10 -4 16 -1 16 9 0 16
-37 20 -46 5z"/>
<path d="M1275 1760 c-3 -5 1 -10 9 -10 9 0 16 5 16 10 0 6 -4 10 -9 10 -6 0
-13 -4 -16 -10z"/>
<path d="M1457 1750 c-22 -26 -21 -30 2 -30 23 0 40 22 23 28 -7 2 -10 8 -6
13 9 16 -1 10 -19 -11z"/>
<path d="M2056 1754 c-17 -17 -22 -44 -7 -44 8 0 41 43 41 55 0 10 -19 5 -34
-11z"/>
<path d="M2880 1759 c0 -5 -4 -7 -10 -4 -6 3 -7 -1 -4 -9 3 -9 10 -16 16 -16
5 0 6 5 3 10 -3 6 -1 10 4 10 6 0 11 5 11 10 0 6 -4 10 -10 10 -5 0 -10 -5
-10 -11z"/>
<path d="M1180 1751 c0 -6 4 -12 8 -15 5 -3 9 1 9 9 0 8 -4 15 -9 15 -4 0 -8
-4 -8 -9z"/>
<path d="M2210 1743 c0 -13 5 -23 10 -23 13 0 13 11 0 30 -8 12 -10 11 -10 -7z"/>
<path d="M2340 1750 c0 -5 5 -10 10 -10 6 0 10 5 10 10 0 6 -4 10 -10 10 -5 0
-10 -4 -10 -10z"/>
<path d="M3185 1740 c3 -5 8 -10 11 -10 2 0 4 5 4 10 0 6 -5 10 -11 10 -5 0
-7 -4 -4 -10z"/>
<path d="M3953 1731 c4 -16 1 -21 -11 -19 -9 2 -18 -6 -21 -17 -8 -26 -52 -85
-61 -80 -3 2 -4 -9 -2 -26 2 -16 8 -29 13 -29 5 0 9 -6 9 -14 0 -11 7 -9 24 7
19 17 22 26 15 45 -13 34 -12 39 14 46 18 5 20 8 7 16 -20 13 -4 13 20 0 15
-8 23 -5 40 12 32 35 27 44 -44 77 -5 2 -6 -6 -3 -18z"/>
<path d="M1985 1730 c3 -5 8 -10 11 -10 2 0 4 5 4 10 0 6 -5 10 -11 10 -5 0
-7 -4 -4 -10z"/>
<path d="M4243 1733 c-7 -3 -13 -11 -13 -19 0 -18 8 -18 26 0 15 16 7 26 -13
19z"/>
<path d="M4730 1729 c0 -5 -4 -7 -10 -4 -5 3 -10 -4 -10 -15 0 -16 -5 -20 -15
-16 -9 3 -15 0 -15 -9 0 -19 29 -8 52 20 20 23 22 35 8 35 -5 0 -10 -5 -10
-11z"/>
<path d="M2062 1689 c-13 -16 -19 -29 -14 -29 5 0 12 -7 16 -15 5 -13 2 -14
-15 -4 -11 6 -23 8 -27 5 -3 -3 -1 -6 5 -6 5 0 10 -13 10 -30 0 -16 -4 -27 -9
-24 -4 3 -8 -2 -8 -12 0 -11 6 -15 20 -11 23 6 26 -3 8 -22 -11 -11 -9 -12 7
-8 20 6 58 -18 66 -41 3 -9 11 -8 33 3 28 15 72 6 47 -9 -6 -4 -11 -2 -11 4 0
6 -5 8 -11 4 -8 -4 -8 -9 0 -17 6 -6 11 -16 11 -22 0 -5 -7 -1 -15 9 -8 11
-18 17 -22 13 -3 -4 1 -15 10 -25 23 -25 21 -35 -5 -27 -18 5 -20 4 -8 -4 8
-6 11 -11 6 -11 -5 0 3 -10 17 -23 34 -28 34 -32 -1 -50 -27 -13 -29 -13 -41
15 -8 17 -20 28 -32 28 -17 0 -18 -3 -9 -20 8 -15 8 -20 -2 -20 -7 0 -13 -11
-13 -24 0 -18 5 -23 19 -20 11 2 25 -1 33 -7 9 -8 13 -8 13 0 0 6 9 11 20 11
11 0 20 -4 20 -10 0 -5 -7 -10 -16 -10 -14 0 -14 -3 -4 -15 10 -12 16 -13 27
-3 12 10 18 8 33 -11 14 -20 23 -23 53 -17 21 4 38 2 42 -4 3 -5 17 -10 31
-10 35 0 29 -17 -11 -31 -19 -7 -35 -17 -35 -21 0 -18 138 -12 160 7 17 16 50
3 50 -19 0 -10 -17 -14 -57 -14 -32 0 -59 -5 -61 -11 -2 -6 -11 -11 -19 -11
-10 0 -13 -6 -9 -16 3 -9 6 -18 6 -20 0 -2 6 -4 14 -4 8 0 17 -9 21 -19 7 -23
56 -23 64 0 6 19 20 31 64 57 48 28 72 18 72 -30 l0 -33 52 1 c53 2 91 23 78
44 -3 6 1 13 9 16 9 3 16 12 16 20 0 8 5 14 11 14 8 0 7 5 -1 15 -20 24 14 46
46 31 29 -14 30 -20 3 -63 -15 -24 -18 -38 -11 -45 13 -13 32 -2 32 18 0 8 5
14 10 14 6 0 10 8 10 19 0 10 9 21 20 24 13 3 20 0 20 -9 0 -8 9 -14 20 -14
11 0 20 3 20 8 0 12 78 42 109 42 39 0 47 15 21 42 -13 15 -17 24 -9 27 6 2
15 -3 20 -10 6 -10 9 -11 9 -1 0 7 13 12 30 12 17 0 30 -5 30 -12 0 -9 3 -8
10 2 5 8 12 11 17 7 10 -11 -17 -27 -44 -27 -27 0 -31 -20 -5 -27 24 -6 27
-52 5 -69 -16 -12 -15 -13 15 -14 17 0 32 5 32 10 0 6 -6 10 -12 10 -9 0 -8 4
2 11 11 8 12 12 3 16 -25 10 -13 39 21 51 19 7 38 12 43 11 27 -5 45 2 39 16
-6 16 9 21 18 6 9 -14 54 11 66 38 9 20 7 27 -15 47 -33 30 -35 30 -35 -6 0
-21 -4 -28 -14 -24 -9 4 -14 21 -14 50 0 28 3 42 10 38 6 -4 14 -1 18 6 4 7
13 9 19 6 17 -11 13 -26 -6 -27 -14 0 -14 -2 3 -9 12 -5 25 -13 29 -19 10 -18
25 -13 25 8 0 26 12 32 28 15 7 -8 9 -14 4 -14 -6 0 -12 -11 -14 -23 -6 -33
47 -94 67 -77 10 8 15 8 20 0 5 -8 13 -6 26 6 18 16 19 16 19 -9 0 -29 17 -46
26 -24 3 9 13 13 25 10 11 -3 19 0 19 7 0 7 12 10 33 9 21 -2 31 1 30 9 -4 17
12 15 27 -3 7 -9 19 -14 26 -11 8 3 11 0 7 -10 -3 -7 -11 -14 -19 -14 -8 0
-14 -7 -14 -15 0 -13 3 -14 15 -3 37 31 65 64 76 90 6 15 15 28 20 28 5 0 9 7
9 15 0 8 7 15 15 15 8 0 14 3 14 8 -1 4 -1 16 0 27 1 17 3 18 11 5 7 -11 10
-12 10 -2 0 9 7 11 19 7 14 -4 25 1 37 20 9 14 15 27 13 28 -2 2 -12 9 -22 17
-17 12 -21 11 -39 -10 -13 -17 -21 -21 -25 -12 -8 19 -41 14 -48 -8 -3 -11
-11 -20 -17 -20 -6 0 -19 -9 -29 -21 -17 -20 -19 -20 -36 -4 -16 17 -16 17 5
11 18 -6 22 -3 22 12 0 13 9 22 25 26 17 4 22 11 18 22 -4 10 -1 15 8 14 44
-7 54 15 14 30 -28 11 -32 35 -10 66 8 12 12 24 8 27 -7 8 -63 -24 -63 -36 0
-4 4 -6 9 -2 17 10 21 -12 6 -25 -19 -16 -19 -30 0 -30 8 0 15 -7 15 -15 0
-18 -12 -19 -28 -3 -10 10 -17 10 -31 1 -12 -7 -22 -8 -28 -2 -14 14 -64 -7
-70 -30 -6 -24 -33 -36 -33 -16 0 8 -5 15 -12 15 -6 0 -2 10 9 23 31 34 35 55
13 67 -26 14 -33 13 -26 -5 3 -8 -1 -18 -9 -22 -8 -5 -21 -25 -30 -46 l-15
-37 25 0 c14 0 25 -4 25 -10 0 -5 -8 -10 -18 -10 -11 0 -29 -9 -42 -20 -25
-21 -40 -18 -40 8 1 18 30 63 30 46 0 -19 20 22 20 42 0 16 -6 20 -27 19 -16
-1 -38 -5 -51 -9 -19 -6 -24 -4 -29 14 -3 13 -11 19 -19 16 -10 -4 -14 3 -15
22 0 15 -3 21 -6 15 -2 -7 -13 -13 -23 -13 -10 0 -22 -5 -25 -10 -9 -15 -25
-2 -18 15 3 8 0 15 -6 15 -16 0 -14 16 5 34 14 15 14 16 0 16 -9 0 -16 -7 -16
-15 0 -8 -5 -15 -11 -15 -8 0 -8 -4 0 -14 10 -11 6 -17 -18 -29 -18 -9 -33
-11 -37 -6 -3 5 0 9 5 9 6 0 11 5 11 10 0 6 -7 10 -15 10 -8 0 -15 -5 -15 -11
0 -8 -4 -8 -14 0 -10 8 -16 9 -21 1 -8 -12 -45 -14 -45 -1 0 5 -11 9 -25 9
-13 0 -22 -4 -19 -9 8 -13 -10 -11 -24 3 -10 10 -15 10 -21 -1 -5 -7 -14 -10
-20 -7 -6 4 -11 3 -11 -2 0 -6 -8 -9 -17 -8 -13 1 -17 -5 -15 -19 2 -19 2 -19
-9 -2 -8 14 -7 22 5 36 20 22 20 27 0 35 -17 6 -55 -27 -68 -59 -13 -34 -18
-75 -8 -75 6 0 10 6 9 13 -1 36 4 57 13 52 6 -3 10 -1 10 4 0 6 5 11 10 11 6
0 10 -5 10 -11 0 -5 10 -25 23 -44 18 -26 26 -32 35 -23 6 6 15 8 19 3 5 -4 2
-10 -4 -12 -7 -3 -13 -18 -13 -34 0 -22 5 -29 20 -29 22 0 26 10 9 27 -8 8 -8
13 0 18 6 3 14 -1 17 -10 6 -14 8 -14 25 1 30 27 34 8 5 -20 -14 -15 -24 -32
-22 -39 1 -6 1 -9 -1 -4 -3 4 -15 7 -27 7 -17 0 -28 11 -42 41 -23 50 -38 52
-42 4 -3 -35 -25 -49 -35 -22 -3 6 -6 2 -6 -10 -1 -12 5 -24 12 -26 7 -3 5 -6
-5 -6 -17 -1 -24 20 -19 58 2 7 -2 10 -8 7 -5 -3 -23 -8 -40 -10 -25 -3 -31 0
-31 15 0 9 7 25 16 33 8 9 12 16 8 16 -4 0 1 9 11 20 14 16 16 23 7 32 -18 18
-14 28 12 28 28 0 44 36 17 38 -38 5 -56 2 -59 -8 -2 -5 -8 -10 -13 -10 -6 0
-7 5 -4 10 3 6 2 10 -4 10 -5 0 -12 -13 -16 -30 -4 -16 -10 -30 -15 -30 -4 0
-13 14 -19 30 -11 33 -26 42 -16 10 5 -16 2 -20 -15 -20 -12 0 -30 -10 -41
-22 -10 -13 -18 -17 -19 -10 0 6 4 12 8 12 14 0 11 38 -4 50 -7 7 -11 16 -8
21 3 5 -2 9 -10 9 -8 0 -18 -9 -21 -20 -3 -11 -15 -20 -25 -20 -14 0 -18 7
-18 30 1 22 6 30 17 29 35 -3 62 1 57 10 -3 5 -15 7 -26 4 -12 -3 -22 1 -26
11 -5 14 -9 12 -25 -8 -10 -13 -19 -32 -19 -41 0 -9 -5 -13 -10 -10 -6 4 -7
11 -4 17 4 6 -2 6 -15 -1 -17 -9 -21 -21 -20 -54 l1 -42 9 33 c5 17 14 32 19
32 11 0 8 -80 -5 -99 -4 -8 -11 -32 -15 -53 -6 -30 -4 -38 8 -38 10 0 13 7 10
25 -4 17 -1 25 9 25 9 0 13 -6 9 -15 -3 -8 -1 -15 4 -15 6 0 10 5 10 11 0 14
67 79 82 79 6 0 2 -8 -9 -17 -10 -10 -33 -38 -50 -63 -17 -25 -41 -53 -52 -62
-12 -10 -18 -24 -15 -33 4 -8 2 -15 -2 -16 -5 0 -17 -2 -26 -4 -9 -2 -22 3
-29 11 -6 8 -20 14 -30 14 -11 0 -19 5 -19 10 0 20 57 10 74 -12 15 -21 16
-22 14 -3 -3 24 -41 61 -46 46 -5 -15 -35 -14 -50 1 -9 9 -12 9 -12 -1 0 -10
-10 -11 -36 -6 -41 7 -72 30 -51 38 6 2 9 8 5 12 -4 4 -21 0 -38 -8 -24 -13
-36 -14 -56 -5 -20 9 -22 14 -11 26 9 12 9 16 0 19 -9 3 -4 16 13 39 15 19 24
38 20 42 -4 4 -12 -1 -17 -11 -6 -9 -15 -17 -22 -17 -8 0 -7 3 2 9 12 8 12 16
1 56 -10 35 -10 49 -1 58 8 8 11 3 11 -21 0 -18 5 -32 10 -32 6 0 10 5 10 10
0 6 9 10 19 10 15 0 31 18 31 35 0 2 -18 6 -40 10 -30 5 -40 11 -39 23 3 34
-2 42 -26 42 -14 0 -25 -4 -25 -9 0 -5 -8 -11 -17 -13 -16 -3 -16 -4 0 -20 18
-18 23 -58 7 -58 -5 0 -10 7 -10 15 0 8 -7 15 -16 15 -10 0 -14 6 -10 15 3 8
0 14 -7 12 -7 -1 -11 8 -9 26 4 35 -7 34 -36 -4z m58 -78 c0 -18 -18 -21 -30
-6 -10 13 -9 15 9 15 11 0 21 -4 21 -9z m20 -88 c0 -17 -8 -16 -26 1 -22 22
-18 38 6 24 11 -7 20 -18 20 -25z m22 5 c-7 -7 -12 -8 -12 -2 0 6 3 14 7 17 3
4 9 5 12 2 2 -3 -1 -11 -7 -17z m568 8 c0 -2 -7 -6 -15 -10 -8 -3 -15 -1 -15
4 0 6 7 10 15 10 8 0 15 -2 15 -4z m431 -37 c-24 -21 -46 -37 -49 -34 -7 6 69
75 82 75 6 -1 -9 -19 -33 -41z m96 20 c-3 -12 0 -22 9 -26 21 -8 17 -20 -8
-26 -13 -2 -31 -8 -40 -12 -11 -4 -18 -3 -18 3 0 6 9 14 20 17 12 4 20 14 19
23 -3 30 1 42 12 42 7 0 9 -9 6 -21z m-237 -9 c0 -9 -31 -23 -37 -16 -3 3 1
11 8 19 14 15 29 13 29 -3z m-338 -12 c-7 -7 -12 -8 -12 -2 0 14 12 26 19 19
2 -3 -1 -11 -7 -17z m133 12 c3 -5 1 -10 -4 -10 -6 0 -11 5 -11 10 0 6 2 10 4
10 3 0 8 -4 11 -10z m755 -15 c-7 -8 -16 -15 -21 -15 -5 0 -1 9 8 20 9 11 19
17 21 15 3 -3 -1 -11 -8 -20z m-827 -27 c-2 -5 -12 -8 -23 -8 -10 0 -20 -7
-24 -15 -3 -9 -12 -12 -22 -8 -12 4 -15 2 -12 -8 3 -8 9 -14 14 -14 5 0 15 -4
22 -9 7 -4 19 -3 27 4 16 14 18 10 9 -14 -3 -9 -12 -16 -19 -16 -7 0 -16 -6
-18 -12 -3 -8 -6 -5 -6 5 -1 14 -6 17 -22 12 -15 -5 -22 -2 -26 14 -3 12 -9
21 -14 21 -5 0 -9 6 -9 14 0 8 8 13 17 12 9 -2 28 3 42 11 15 7 31 13 38 13 8
0 10 7 6 17 -6 15 -5 16 9 3 9 -8 14 -18 11 -22z m57 -23 c0 -16 -6 -25 -15
-25 -18 0 -20 21 -3 38 17 17 18 16 18 -13z m165 -26 c-4 -11 -2 -19 4 -19 6
0 11 -7 11 -15 0 -23 -17 -18 -24 8 -9 34 -7 59 4 52 6 -4 8 -15 5 -26z m399
15 c5 -12 2 -15 -10 -10 -8 3 -18 6 -20 6 -3 0 -2 5 1 10 9 15 22 12 29 -6z
m-120 -12 c-6 -4 -13 -15 -17 -24 -3 -10 -12 -18 -19 -17 -10 0 -10 2 0 6 6 2
12 13 12 23 0 10 6 20 13 23 16 6 24 -2 11 -11z m426 8 c0 -5 -8 -10 -17 -10
-15 0 -16 2 -3 10 19 12 20 12 20 0z m240 1 c0 -5 -7 -11 -15 -15 -15 -5 -20
5 -8 17 9 10 23 9 23 -2z m-730 -27 c0 -2 -9 -4 -20 -4 -11 0 -20 4 -20 9 0 5
9 7 20 4 11 -3 20 -7 20 -9z m-84 -19 c-3 -9 -11 -13 -16 -10 -8 5 -7 11 1 21
14 18 24 11 15 -11z m-801 5 c3 -5 -1 -10 -9 -10 -9 0 -16 5 -16 10 0 6 4 10
9 10 6 0 13 -4 16 -10z m545 0 c0 -5 -8 -10 -17 -10 -15 0 -16 2 -3 10 19 12
20 12 20 0z m-246 -33 c-3 -9 -14 -17 -23 -17 -14 1 -14 2 3 15 11 8 15 19 11
27 -6 10 -5 10 4 2 6 -6 9 -18 5 -27z m569 16 c2 -5 7 -21 11 -38 l7 -30 -21
30 c-22 33 -25 45 -11 45 6 0 12 -3 14 -7z m-833 -24 c0 -5 -15 -9 -32 -9
l-33 1 25 13 c25 14 40 13 40 -5z m329 -27 c-13 -9 -17 -17 -10 -21 6 -4 -5
-7 -25 -8 -34 -1 -35 0 -19 17 9 10 14 23 11 29 -9 14 16 19 41 8 l23 -10 -21
-15z m131 28 c0 -5 -7 -10 -15 -10 -8 0 -15 5 -15 10 0 6 7 10 15 10 8 0 15
-4 15 -10z m300 0 c0 -5 -4 -10 -10 -10 -5 0 -10 5 -10 10 0 6 5 10 10 10 6 0
10 -4 10 -10z m710 0 c0 -5 -2 -10 -4 -10 -3 0 -8 5 -11 10 -3 6 -1 10 4 10 6
0 11 -4 11 -10z m-293 -6 c-3 -3 -12 -4 -19 -1 -8 3 -5 6 6 6 11 1 17 -2 13
-5z m-757 -8 c0 -3 -4 -8 -10 -11 -5 -3 -10 -1 -10 4 0 6 5 11 10 11 6 0 10
-2 10 -4z m720 -26 c0 -5 -2 -10 -4 -10 -3 0 -8 5 -11 10 -3 6 -1 10 4 10 6 0
11 -4 11 -10z m-724 -15 c8 -20 50 -19 58 1 7 18 19 12 22 -10 2 -18 -45 -27
-69 -15 -10 6 -27 7 -38 4 -18 -6 -19 -5 -10 14 14 25 29 27 37 6z m218 0
c-18 -14 -18 -14 9 -15 18 0 27 -5 27 -16 0 -11 -6 -14 -21 -9 -15 5 -20 3
-17 -6 3 -8 21 -19 42 -24 20 -6 34 -14 30 -18 -11 -11 -44 -8 -44 3 0 6 -7
10 -15 10 -18 0 -56 40 -49 52 3 4 -6 8 -20 8 -14 0 -27 4 -31 9 -5 9 23 15
84 19 24 2 24 1 5 -13z m-284 -25 c0 -5 -4 -10 -10 -10 -5 0 -10 5 -10 10 0 6
5 10 10 10 6 0 10 -4 10 -10z m237 -26 c2 -10 0 -13 -3 -6 -3 6 -12 12 -20 12
-9 0 -12 5 -9 11 10 15 30 5 32 -17z m-57 11 c0 -11 -35 -45 -47 -45 -20 0
-15 17 9 34 22 16 38 20 38 11z m-170 -55 c8 -5 12 -12 8 -15 -9 -9 -78 5 -78
16 0 12 51 11 70 -1z m280 0 c0 -5 -8 -10 -17 -10 -15 0 -16 2 -3 10 19 12 20
12 20 0z m-90 -10 c0 -5 -2 -10 -4 -10 -3 0 -8 5 -11 10 -3 6 -1 10 4 10 6 0
11 -4 11 -10z"/>
<path d="M2357 1700 c-4 -16 -11 -21 -22 -16 -10 3 -14 2 -10 -5 4 -5 1 -18
-6 -27 -11 -14 -11 -15 1 -4 18 16 27 15 34 -3 3 -8 2 -14 -2 -12 -5 1 -22
-10 -40 -25 -32 -26 -41 -48 -22 -48 6 0 10 5 10 10 0 6 10 10 21 10 20 0 20
-1 -5 -21 -26 -21 -28 -21 -42 -3 -14 18 -15 17 -9 -11 4 -24 0 -36 -19 -54
-26 -25 -26 -41 0 -41 8 0 13 4 10 9 -10 16 5 41 25 41 10 0 25 10 34 23 10
14 18 18 23 11 4 -7 24 2 55 27 27 22 44 39 39 39 -5 0 -12 9 -15 20 -3 11
-12 20 -21 20 -9 0 -16 5 -16 10 0 6 6 10 13 10 9 0 9 2 0 8 -7 4 -16 18 -21
32 l-9 24 -6 -24z"/>
<path d="M2540 1710 c0 -5 5 -10 11 -10 5 0 7 5 4 10 -3 6 -8 10 -11 10 -2 0
-4 -4 -4 -10z"/>
<path d="M2745 1710 c-3 -5 3 -10 14 -10 12 0 21 5 21 10 0 6 -6 10 -14 10 -8
0 -18 -4 -21 -10z"/>
<path d="M4746 1693 c-8 -15 -18 -36 -22 -45 -3 -10 -10 -18 -15 -18 -5 0 -9
-11 -9 -25 0 -37 24 -30 44 12 15 31 15 35 2 24 -22 -18 -20 -9 5 34 12 20 19
38 16 41 -3 3 -12 -7 -21 -23z"/>
<path d="M1173 1703 c-15 -5 -17 -23 -4 -23 5 0 11 7 15 15 3 8 4 15 3 14 -1
0 -8 -3 -14 -6z"/>
<path d="M2450 1700 c-12 -8 -13 -13 -3 -28 8 -14 8 -23 1 -30 -6 -6 -8 -18
-5 -27 6 -13 10 -13 27 -3 17 11 20 19 15 48 -8 43 -16 52 -35 40z"/>
<path d="M4777 1686 c-10 -14 -13 -26 -8 -26 13 0 33 28 29 41 -2 6 -12 0 -21
-15z"/>
<path d="M3030 1690 c0 -5 5 -10 10 -10 6 0 10 5 10 10 0 6 -4 10 -10 10 -5 0
-10 -4 -10 -10z"/>
<path d="M4093 1688 c-6 -7 -13 -21 -16 -30 -4 -11 -13 -15 -29 -11 -16 3 -19
2 -10 -4 7 -5 10 -17 6 -26 -3 -9 -3 -17 1 -17 13 0 50 54 47 69 -3 10 3 12
22 7 19 -5 26 -3 26 9 0 18 -34 20 -47 3z"/>
<path d="M1985 1659 c-8 -35 3 -54 12 -21 3 12 12 22 19 22 8 0 14 7 14 15 0
8 -9 15 -19 15 -14 0 -21 -9 -26 -31z"/>
<path d="M2285 1680 c3 -5 8 -10 11 -10 2 0 4 5 4 10 0 6 -5 10 -11 10 -5 0
-7 -4 -4 -10z"/>
<path d="M3843 1678 c-26 -13 -28 -21 -10 -37 10 -8 19 -4 36 19 23 32 14 37
-26 18z"/>
<path d="M4117 1645 c-3 -6 4 -17 15 -24 23 -14 25 -13 30 14 2 14 -3 20 -19
21 -12 1 -24 -4 -26 -11z"/>
<path d="M4463 1653 c-7 -2 -9 -11 -6 -20 4 -10 2 -14 -5 -9 -14 8 -24 -8 -39
-64 -15 -56 -16 -73 -3 -65 6 3 10 -1 10 -9 0 -19 16 -21 24 -3 5 9 7 9 12 -1
3 -6 9 -10 12 -8 4 2 24 7 45 10 29 5 37 3 37 -9 0 -25 20 -17 31 12 12 32 3
98 -19 130 -14 22 -15 22 -28 6 -7 -10 -14 -31 -15 -48 -2 -26 -3 -24 -8 10
l-6 40 -19 -45 c-16 -37 -20 -41 -24 -23 -2 12 1 39 7 59 12 42 11 43 -6 37z
m-23 -107 c0 -3 -4 -8 -10 -11 -5 -3 -10 -1 -10 4 0 6 5 11 10 11 6 0 10 -2
10 -4z m120 -26 c0 -5 -4 -10 -10 -10 -5 0 -10 5 -10 10 0 6 5 10 10 10 6 0
10 -4 10 -10z"/>
<path d="M4655 1650 c-3 -5 -17 -10 -31 -10 -20 0 -24 -5 -24 -29 0 -16 6 -32
13 -35 10 -5 10 -7 0 -12 -7 -3 -13 -20 -13 -37 l1 -32 19 24 c11 13 20 34 20
47 0 26 16 41 23 22 3 -7 6 -3 6 10 1 13 6 32 11 43 8 15 7 19 -4 19 -8 0 -18
-4 -21 -10z"/>
<path d="M4771 1614 c-12 -25 -19 -49 -15 -53 4 -3 9 0 11 7 3 7 10 18 17 25
11 11 21 67 12 67 -2 0 -14 -21 -25 -46z"/>
<path d="M3420 1634 l-25 -15 27 5 c16 4 28 1 31 -7 3 -6 6 -2 6 11 1 26 -5
27 -39 6z"/>
<path d="M3660 1625 c0 -8 4 -15 9 -15 6 0 8 -9 6 -19 -3 -14 1 -18 11 -14 17
6 17 6 2 38 -12 28 -28 33 -28 10z"/>
<path d="M4011 1624 c0 -11 3 -14 6 -6 3 7 2 16 -1 19 -3 4 -6 -2 -5 -13z"/>
<path d="M2676 1614 c-9 -22 3 -32 14 -14 12 19 12 30 1 30 -5 0 -12 -7 -15
-16z"/>
<path d="M3986 1617 c3 -10 9 -15 12 -12 3 3 0 11 -7 18 -10 9 -11 8 -5 -6z"/>
<path d="M4200 1611 c0 -11 4 -23 10 -26 6 -4 9 5 8 19 -3 30 -18 35 -18 7z"/>
<path d="M4345 1620 c-3 -5 -1 -10 4 -10 6 0 11 5 11 10 0 6 -2 10 -4 10 -3 0
-8 -4 -11 -10z"/>
<path d="M255 1610 c3 -5 13 -10 21 -10 8 0 12 5 9 10 -3 6 -13 10 -21 10 -8
0 -12 -4 -9 -10z"/>
<path d="M2890 1616 c0 -2 7 -6 15 -10 8 -3 15 -1 15 4 0 6 -7 10 -15 10 -8 0
-15 -2 -15 -4z"/>
<path d="M4100 1613 c0 -7 -7 -13 -16 -13 -21 0 -14 -34 9 -38 25 -5 55 7 41
16 -6 4 -16 16 -22 27 -6 11 -12 14 -12 8z"/>
<path d="M4264 1605 c24 -18 36 -19 36 -2 0 7 -12 14 -27 15 -27 1 -27 1 -9
-13z"/>
<path d="M3593 1603 c-8 -3 -7 -10 4 -23 17 -20 33 -18 33 5 0 15 -19 24 -37
18z"/>
<path d="M4365 1594 c-14 -15 -14 -17 2 -30 24 -18 38 -18 23 1 -7 8 -10 22
-6 30 7 19 1 19 -19 -1z"/>
<path d="M270 1571 c0 -15 16 -22 34 -15 25 9 19 24 -9 24 -14 0 -25 -4 -25
-9z"/>
<path d="M2441 1536 c-31 -31 -40 -45 -30 -49 12 -5 12 -7 -1 -16 -8 -5 -11
-13 -6 -18 4 -4 12 0 17 10 6 9 21 27 33 40 19 17 45 78 34 77 -2 -1 -23 -20
-47 -44z"/>
<path d="M3444 1555 c1 -33 16 -33 16 0 0 14 -4 25 -9 25 -5 0 -8 -11 -7 -25z"/>
<path d="M4170 1570 c0 -5 -7 -10 -15 -10 -13 0 -18 -18 -14 -46 0 -4 -5 -10
-11 -14 -9 -6 -8 -14 5 -34 16 -23 16 -26 1 -32 -9 -3 -14 -10 -11 -15 13 -20
35 5 35 40 0 30 4 37 19 37 11 0 17 -5 14 -10 -4 -5 1 -7 11 -3 10 4 21 7 24
7 4 0 0 5 -8 11 -12 8 -9 9 13 5 31 -7 31 -7 17 28 -5 14 -17 26 -26 26 -10 0
-14 -5 -10 -16 3 -9 2 -12 -5 -9 -6 4 -16 -1 -24 -11 -10 -14 -17 -16 -25 -8
-8 8 -4 15 14 28 29 18 34 36 11 36 -8 0 -15 -4 -15 -10z"/>
<path d="M4298 1573 c-19 -5 -25 -47 -9 -58 12 -7 41 22 41 40 0 17 -10 23
-32 18z"/>
<path d="M0 1561 c0 -6 5 -13 10 -16 5 -3 10 1 10 9 0 9 -4 16 -10 16 -5 0
-10 -4 -10 -9z"/>
<path d="M4035 1560 c-3 -5 -1 -10 4 -10 6 0 11 5 11 10 0 6 -2 10 -4 10 -3 0
-8 -4 -11 -10z"/>
<path d="M1620 1553 c0 -5 9 -19 20 -33 15 -19 20 -21 20 -8 0 9 3 23 6 32 5
12 0 16 -20 16 -14 0 -26 -3 -26 -7z"/>
<path d="M3904 1535 c-9 -14 -14 -28 -11 -32 9 -8 38 17 31 28 -3 5 2 9 10 9
9 0 16 -5 16 -12 0 -6 2 -9 5 -6 9 9 -7 38 -21 38 -7 0 -21 -11 -30 -25z"/>
<path d="M4711 1539 c-18 -17 -25 -19 -31 -9 -5 8 -14 10 -26 5 -17 -8 -17 -9
4 -12 30 -6 28 -23 -3 -23 -15 0 -29 -8 -36 -22 -11 -21 -11 -22 5 -8 10 8 25
15 33 16 8 2 23 10 32 18 10 9 25 16 34 16 10 0 17 8 17 20 0 25 -1 25 -29 -1z"/>
<path d="M3720 1540 c-9 -6 -10 -10 -3 -10 6 0 15 5 18 10 8 12 4 12 -15 0z"/>
<path d="M4000 1540 c-8 -5 -11 -12 -7 -16 4 -4 13 -2 19 4 15 15 7 24 -12 12z"/>
<path d="M1390 1525 c-7 -9 -11 -18 -8 -20 9 -10 38 7 38 21 0 18 -14 18 -30
-1z"/>
<path d="M2400 1529 c0 -5 5 -7 10 -4 6 3 10 8 10 11 0 2 -4 4 -10 4 -5 0 -10
-5 -10 -11z"/>
<path d="M4080 1521 c-7 -13 -7 -22 0 -26 5 -3 10 3 10 15 0 12 5 18 10 15 6
-3 10 -1 10 4 0 18 -19 12 -30 -8z"/>
<path d="M4770 1529 c0 -5 5 -7 10 -4 6 3 10 8 10 11 0 2 -4 4 -10 4 -5 0 -10
-5 -10 -11z"/>
<path d="M1680 1519 c0 -5 5 -7 10 -4 6 3 10 8 10 11 0 2 -4 4 -10 4 -5 0 -10
-5 -10 -11z"/>
<path d="M1800 1512 c0 -12 3 -12 15 -2 8 7 15 13 15 15 0 1 -7 2 -15 2 -8 0
-15 -7 -15 -15z"/>
<path d="M3840 1517 c0 -8 7 -17 15 -21 8 -3 15 -2 15 3 0 5 -7 14 -15 21 -12
10 -15 10 -15 -3z"/>
<path d="M1910 1509 c0 -5 5 -7 10 -4 6 3 10 8 10 11 0 2 -4 4 -10 4 -5 0 -10
-5 -10 -11z"/>
<path d="M2916 1495 c4 -8 10 -15 15 -15 5 0 9 7 9 15 0 8 -7 15 -15 15 -9 0
-12 -6 -9 -15z"/>
<path d="M4745 1494 c-22 -22 -13 -27 18 -11 15 8 24 17 20 20 -10 11 -20 8
-38 -9z"/>
<path d="M410 1492 c0 -7 8 -16 18 -19 9 -4 20 -11 23 -16 3 -5 9 -1 12 8 4 9
3 13 -3 10 -6 -3 -10 -1 -10 5 0 6 -5 8 -11 4 -6 -3 -15 0 -20 7 -7 11 -9 11
-9 1z"/>
<path d="M1400 1490 c0 -4 9 -10 20 -13 11 -3 20 -2 20 3 0 4 -9 10 -20 13
-11 3 -20 2 -20 -3z"/>
<path d="M1760 1486 c0 -9 5 -16 10 -16 6 0 10 4 10 9 0 6 -4 13 -10 16 -5 3
-10 -1 -10 -9z"/>
<path d="M2490 1489 c0 -5 -4 -8 -9 -5 -10 7 -33 -20 -49 -56 -10 -25 -9 -28
8 -28 10 0 21 8 25 19 3 10 14 29 25 41 22 25 26 40 10 40 -5 0 -10 -5 -10
-11z"/>
<path d="M3910 1491 c0 -5 9 -11 19 -14 14 -3 18 -1 14 9 -6 15 -33 19 -33 5z"/>
<path d="M4002 1481 c2 -7 7 -12 11 -12 12 1 9 15 -3 20 -7 2 -11 -2 -8 -8z"/>
<path d="M4673 1476 c-27 -13 -28 -19 -7 -41 19 -18 22 -17 27 11 1 10 6 25
10 32 10 14 1 14 -30 -2z"/>
<path d="M1900 1458 c0 -17 -3 -19 -9 -9 -5 7 -14 10 -20 7 -21 -13 -11 -27
16 -24 19 2 27 9 28 26 1 12 -2 22 -7 22 -4 0 -8 -10 -8 -22z"/>
<path d="M1935 1470 c-3 -5 -1 -10 4 -10 6 0 11 5 11 10 0 6 -2 10 -4 10 -3 0
-8 -4 -11 -10z"/>
<path d="M1323 1432 c-27 -30 -35 -34 -42 -22 -6 8 -13 11 -17 8 -3 -4 1 -15
10 -24 15 -14 21 -15 42 -3 14 7 23 18 20 25 -4 10 1 11 19 4 16 -6 25 -6 25
0 0 6 -5 10 -11 10 -6 0 -8 9 -4 20 9 29 -6 23 -42 -18z"/>
<path d="M2117 1459 c7 -7 15 -10 18 -7 3 3 -2 9 -12 12 -14 6 -15 5 -6 -5z"/>
<path d="M2285 1460 c-3 -5 -1 -10 4 -10 6 0 11 5 11 10 0 6 -2 10 -4 10 -3 0
-8 -4 -11 -10z"/>
<path d="M4226 1455 c-11 -8 -16 -15 -10 -15 5 0 18 7 28 15 11 8 16 15 10 15
-5 0 -18 -7 -28 -15z"/>
<path d="M4488 1460 c-18 -11 -51 -70 -44 -78 3 -2 17 5 33 16 28 20 33 22 53
22 16 0 11 37 -6 44 -19 7 -15 8 -36 -4z"/>
<path d="M4749 1453 c-13 -16 -12 -17 4 -4 9 7 17 15 17 17 0 8 -8 3 -21 -13z"/>
<path d="M1011 1444 c-54 -17 -57 -20 -31 -27 11 -3 18 -1 14 4 -3 5 0 9 5 9
6 0 11 -4 11 -9 0 -5 8 -8 18 -6 9 1 16 8 15 13 -2 6 3 9 10 6 7 -2 21 2 32
10 19 15 19 15 -5 15 -14 -1 -45 -7 -69 -15z"/>
<path d="M1200 1450 c0 -5 7 -10 16 -10 8 0 12 5 9 10 -3 6 -10 10 -16 10 -5
0 -9 -4 -9 -10z"/>
<path d="M2373 1443 c3 -13 1 -23 -4 -23 -5 0 -9 -9 -9 -21 0 -27 16 -16 24
17 4 16 2 31 -5 38 -9 8 -10 6 -6 -11z"/>
<path d="M1749 1448 c-6 -21 -5 -38 2 -38 5 0 9 9 9 20 0 16 -7 28 -11 18z"/>
<path d="M4614 1442 c-19 -12 -35 -50 -24 -57 5 -3 10 -2 10 4 0 5 9 9 20 8
14 -1 18 -6 14 -19 -3 -11 0 -18 7 -18 7 0 10 3 6 6 -3 4 1 14 10 23 15 15 15
16 0 19 -15 3 -21 14 -18 35 1 9 -11 9 -25 -1z"/>
<path d="M1810 1430 c0 -5 5 -10 10 -10 6 0 10 5 10 10 0 6 -4 10 -10 10 -5 0
-10 -4 -10 -10z"/>
<path d="M4240 1425 c-13 -15 -35 -22 -26 -7 2 4 -4 8 -14 8 -11 0 -17 -2 -15
-5 3 -2 0 -10 -7 -18 -10 -12 -7 -13 17 -7 20 5 26 4 21 -5 -4 -6 -2 -11 3
-11 6 0 11 4 11 9 0 5 7 17 16 26 9 9 14 18 12 21 -3 2 -11 -2 -18 -11z"/>
<path d="M1790 1405 c7 -9 15 -13 17 -11 7 7 -7 26 -19 26 -6 0 -6 -6 2 -15z"/>
<path d="M1900 1408 c0 -4 14 -8 30 -8 17 0 30 2 30 4 0 2 -13 6 -30 8 -16 3
-30 1 -30 -4z"/>
<path d="M4370 1409 c0 -5 -4 -7 -10 -4 -5 3 -10 -1 -10 -9 0 -20 17 -21 36
-2 18 19 18 26 -1 26 -8 0 -15 -5 -15 -11z"/>
<path d="M1054 1394 c4 -9 -2 -14 -16 -14 -21 0 -21 0 -2 -15 27 -20 39 -18
52 9 9 21 8 24 -14 29 -18 3 -24 1 -20 -9z"/>
<path d="M1496 1402 c-3 -6 -1 -14 5 -17 15 -10 25 3 12 16 -7 7 -13 7 -17 1z"/>
<path d="M4546 1403 c-12 -13 -6 -53 9 -53 9 0 15 9 15 24 0 26 -12 40 -24 29z"/>
<path d="M1620 1390 c0 -5 9 -14 20 -20 22 -12 27 -1 8 18 -14 14 -28 16 -28
2z"/>
<path d="M3940 1390 c0 -5 5 -10 11 -10 5 0 7 -4 4 -10 -3 -5 -1 -10 4 -10 13
0 13 3 5 24 -7 18 -24 22 -24 6z"/>
<path d="M1585 1380 c-16 -7 -17 -9 -3 -9 9 -1 20 4 23 9 7 11 7 11 -20 0z"/>
<path d="M1957 1374 c3 -8 14 -14 25 -14 23 0 16 16 -11 23 -14 3 -18 1 -14
-9z"/>
<path d="M4758 1383 c7 -3 16 -2 19 1 4 3 -2 6 -13 5 -11 0 -14 -3 -6 -6z"/>
<path d="M1350 1370 c0 -7 -7 -9 -16 -6 -8 3 -12 2 -9 -4 3 -6 13 -10 21 -10
9 0 12 -5 8 -12 -4 -7 -3 -8 4 -4 15 9 16 33 2 41 -5 3 -10 1 -10 -5z"/>
<path d="M1443 1359 c-3 -11 -11 -19 -18 -19 -21 0 -23 -34 -3 -52 12 -13 18
-14 18 -5 0 7 -5 18 -11 24 -8 8 -5 13 10 18 12 3 21 13 21 21 0 17 17 19 22
2 3 -8 6 -6 10 4 5 11 -1 17 -19 21 -19 3 -27 0 -30 -14z"/>
<path d="M1740 1370 c0 -5 5 -10 10 -10 6 0 10 5 10 10 0 6 -4 10 -10 10 -5 0
-10 -4 -10 -10z"/>
<path d="M1845 1370 c3 -5 8 -10 11 -10 2 0 4 5 4 10 0 6 -5 10 -11 10 -5 0
-7 -4 -4 -10z"/>
<path d="M4153 1363 c-23 -8 -14 -33 12 -33 14 0 25 4 25 9 0 14 -24 29 -37
24z"/>
<path d="M4300 1345 c0 -15 4 -24 10 -20 6 3 10 12 10 20 0 8 -4 17 -10 20 -6
4 -10 -5 -10 -20z"/>
<path d="M1914 1324 c5 -13 -1 -14 -37 -9 -23 4 -53 2 -67 -3 -25 -10 -23 -13
20 -24 11 -4 10 -9 -8 -23 -26 -23 -28 -38 -6 -64 15 -16 19 -17 44 -4 20 10
27 19 23 33 -3 11 -12 20 -20 20 -13 0 -13 3 -3 15 7 9 21 13 31 10 10 -4 29
1 41 9 12 9 16 16 9 16 -8 0 -11 7 -8 20 3 13 0 20 -10 20 -10 0 -13 -6 -9
-16z"/>
<path d="M1628 1298 c5 -5 16 -8 23 -6 8 3 3 7 -10 11 -17 4 -21 3 -13 -5z"/>
<path d="M2010 1290 c0 -5 -7 -10 -15 -10 -8 0 -15 -4 -15 -9 0 -5 -9 -12 -19
-16 -13 -4 -17 -12 -14 -26 4 -14 11 -18 22 -14 9 4 18 7 21 8 10 4 11 -14 4
-58 -4 -33 -11 -45 -23 -45 -9 0 -25 -9 -34 -21 -17 -20 -17 -20 0 -19 37 4
54 0 47 -12 -5 -8 -2 -9 9 -5 9 3 19 2 22 -4 4 -5 11 -7 16 -4 10 7 7 54 -5
73 -8 14 0 32 16 32 5 0 24 6 41 14 67 29 115 45 121 39 3 -4 6 1 6 9 0 10 -8
14 -25 13 -14 -2 -25 0 -25 5 0 4 -11 10 -25 12 -16 4 -25 0 -28 -11 -4 -13
-5 -13 -6 2 -1 11 -9 17 -26 17 -20 0 -25 -5 -25 -26 0 -14 4 -23 9 -20 5 3
14 0 19 -7 9 -10 4 -12 -23 -9 -26 3 -34 9 -38 30 -3 15 -1 29 4 30 12 5 12
42 -1 42 -5 0 -10 -4 -10 -10z"/>
<path d="M4752 1240 c-13 -22 -17 -110 -4 -110 5 0 14 18 21 40 6 22 16 40 21
40 6 0 10 11 10 25 0 31 -29 34 -48 5z"/>
<path d="M1664 1218 c-4 -6 -2 -14 4 -16 7 -2 12 -11 12 -19 0 -11 -4 -13 -12
-6 -7 6 -23 12 -34 15 -20 5 -22 2 -20 -33 1 -30 5 -39 19 -39 18 0 24 -25 7
-35 -5 -3 -10 -13 -10 -21 0 -12 8 -13 38 -8 20 4 45 11 55 16 22 11 35 2 20
-13 -9 -9 -29 -16 -56 -18 -9 -1 -6 -61 4 -61 3 0 14 9 24 20 9 10 33 24 51
30 30 10 49 40 25 40 -5 0 -11 10 -13 23 -2 12 -8 22 -14 22 -18 0 -44 32 -44
54 0 12 -9 30 -20 41 -23 23 -26 24 -36 8z"/>
<path d="M1911 1197 c-6 -8 -8 -17 -4 -20 7 -8 33 11 33 24 0 13 -16 11 -29
-4z"/>
<path d="M3200 1200 c0 -5 5 -10 11 -10 5 0 7 5 4 10 -3 6 -8 10 -11 10 -2 0
-4 -4 -4 -10z"/>
<path d="M3022 1163 c-24 -12 -30 -18 -20 -24 7 -5 9 -9 4 -9 -5 0 -3 -7 4
-15 16 -19 49 1 42 27 -3 12 1 18 12 18 10 0 14 5 11 10 -8 13 -14 12 -53 -7z"/>
<path d="M4271 1154 c0 -11 3 -14 6 -6 3 7 2 16 -1 19 -3 4 -6 -2 -5 -13z"/>
<path d="M2100 1130 c-26 -36 -26 -70 0 -77 11 -3 20 -10 20 -17 0 -6 8 -2 16
9 12 15 18 16 21 7 4 -10 9 -9 24 4 25 22 24 44 0 44 -11 0 -23 5 -26 10 -3 6
-2 10 3 10 6 0 8 8 5 18 -7 28 -40 24 -63 -8z"/>
<path d="M4400 1130 c0 -6 -11 -8 -26 -4 -20 5 -26 2 -31 -15 -3 -11 -9 -21
-12 -21 -4 0 -8 -7 -8 -15 0 -8 4 -15 9 -15 4 0 8 5 8 10 0 6 7 10 16 10 9 0
25 10 35 22 18 20 25 38 14 38 -3 0 -5 -5 -5 -10z"/>
<path d="M4770 1100 c0 -11 7 -20 15 -20 8 0 15 9 15 20 0 11 -7 20 -15 20 -8
0 -15 -9 -15 -20z"/>
<path d="M2918 1103 c7 -3 16 -2 19 1 4 3 -2 6 -13 5 -11 0 -14 -3 -6 -6z"/>
<path d="M690 1075 c0 -8 5 -15 10 -15 6 0 10 5 10 11 0 5 5 7 10 4 6 -4 8
-10 5 -15 -3 -5 -1 -11 5 -15 6 -4 10 5 10 19 0 21 -5 26 -25 26 -16 0 -25 -6
-25 -15z"/>
<path d="M4291 1064 c0 -11 3 -14 6 -6 3 7 2 16 -1 19 -3 4 -6 -2 -5 -13z"/>
<path d="M4640 1070 c0 -5 9 -10 20 -10 11 0 20 5 20 10 0 6 -9 10 -20 10 -11
0 -20 -4 -20 -10z"/>
<path d="M2018 1043 c-30 -8 -21 -33 11 -33 35 0 60 24 35 34 -17 6 -19 6 -46
-1z"/>
<path d="M2277 1043 c-4 -3 -7 -15 -7 -25 0 -18 23 -24 54 -12 14 5 13 9 -5
25 -24 20 -32 23 -42 12z"/>
<path d="M1570 1018 c-21 -23 -26 -38 -11 -38 5 0 7 -9 4 -20 -3 -11 -9 -20
-14 -20 -5 0 -9 -7 -9 -15 0 -8 9 -15 20 -15 11 0 20 -5 20 -10 0 -21 29 -21
49 -1 16 16 18 26 11 48 -4 15 -11 40 -14 54 -8 36 -31 43 -56 17z"/>
<path d="M682 998 c-15 -15 -16 -38 -2 -38 12 0 50 32 50 42 0 12 -35 9 -48
-4z"/>
<path d="M1815 970 c-3 -5 -15 -10 -26 -10 -12 0 -19 -5 -17 -12 8 -22 32 -19
51 7 10 14 13 25 8 25 -5 0 -13 -4 -16 -10z"/>
<path d="M1902 943 c2 -22 10 -29 36 -34 17 -4 32 -2 32 3 0 20 -34 58 -52 58
-15 0 -19 -6 -16 -27z"/>
<path d="M2219 942 c-26 -3 -27 -5 -24 -64 3 -55 15 -96 15 -52 0 12 14 26 40
38 22 11 40 21 40 24 0 2 -10 16 -22 31 -16 18 -31 25 -49 23z"/>
<path d="M1699 928 c-4 -36 14 -63 33 -52 14 9 8 52 -8 58 -22 8 -24 8 -25 -6z"/>
<path d="M1340 926 c0 -2 7 -7 16 -10 8 -3 12 -2 9 4 -6 10 -25 14 -25 6z"/>
<path d="M2960 920 c0 -6 7 -10 15 -10 7 0 19 -8 24 -17 6 -10 10 -13 11 -8 0
6 -4 15 -8 21 -10 15 -42 25 -42 14z"/>
<path d="M2904 876 c-8 -22 -2 -27 16 -16 12 7 12 12 3 21 -10 10 -14 9 -19
-5z"/>
</g>
</svg>
